<?xml version="1.0" standalone="no"?>
<!DOCTYPE svg PUBLIC "-//W3C//DTD SVG 20010904//EN"
 "http://www.w3.org/TR/2001/REC-SVG-20010904/DTD/svg10.dtd">
<svg version="1.0" xmlns="http://www.w3.org/2000/svg"
 width="1768.000000pt" height="996.000000pt" viewBox="0 0 1768.000000 996.000000"
 preserveAspectRatio="xMidYMid meet">

<g transform="translate(0.000000,996.000000) scale(0.100000,-0.100000)"
fill="#fff" stroke="none">
<path d="M5165 8395 c-273 -12 -341 -16 -630 -35 -184 -12 -549 -45 -775 -69
-406 -44 -882 -111 -1081 -151 -98 -20 -265 -76 -319 -107 -27 -15 -31 -15 85
2 20 3 8 -6 -40 -30 l-70 -34 45 6 c25 3 88 13 140 23 87 17 550 85 750 110
47 6 117 15 155 20 39 5 140 16 225 25 85 8 198 20 250 25 184 19 552 46 915
66 543 29 1979 28 2305 -2 75 -7 74 -2 -7 32 -45 18 -52 24 -33 25 14 1 30 3
35 4 6 2 19 3 30 4 39 4 -74 40 -187 60 -62 12 -138 25 -169 31 -77 14 -1274
10 -1624 -5z m1818 -71 c38 -9 66 -18 64 -21 -3 -2 -24 1 -46 7 -23 6 -83 17
-134 25 -86 13 -87 14 -22 9 39 -3 101 -12 138 -20z"/>
<path d="M7858 8303 c23 -2 61 -2 85 0 23 2 4 4 -43 4 -47 0 -66 -2 -42 -4z"/>
<path d="M8910 8294 c19 -2 141 -16 270 -30 129 -14 288 -34 352 -43 65 -10
115 -15 113 -11 -8 13 -140 49 -235 65 -55 9 -188 17 -315 19 -121 3 -204 3
-185 0z"/>
<path d="M8820 8261 c0 -5 33 -12 73 -16 39 -3 106 -10 147 -15 41 -6 154 -19
250 -30 96 -12 216 -27 267 -34 51 -7 98 -9 105 -5 9 6 5 9 -12 9 -14 0 -54 9
-90 20 -110 34 -225 48 -465 60 -126 6 -240 13 -252 15 -13 3 -23 1 -23 -4z"/>
<path d="M7613 8243 c26 -2 68 -2 95 0 26 2 4 3 -48 3 -52 0 -74 -1 -47 -3z"/>
<path d="M8105 8240 l-40 -7 40 0 c22 -1 67 3 100 7 l60 7 -60 0 c-33 0 -78
-3 -100 -7z"/>
<path d="M7258 8233 c7 -3 16 -2 19 1 4 3 -2 6 -13 5 -11 0 -14 -3 -6 -6z"/>
<path d="M7388 8233 c7 -3 16 -2 19 1 4 3 -2 6 -13 5 -11 0 -14 -3 -6 -6z"/>
<path d="M7448 8223 c18 -2 45 -2 60 0 15 2 0 4 -33 4 -33 0 -45 -2 -27 -4z"/>
<path d="M8308 8223 c18 -2 45 -2 60 0 15 2 0 4 -33 4 -33 0 -45 -2 -27 -4z"/>
<path d="M8828 8193 c7 -3 16 -2 19 1 4 3 -2 6 -13 5 -11 0 -14 -3 -6 -6z"/>
<path d="M9028 8173 c6 -2 18 -2 25 0 6 3 1 5 -13 5 -14 0 -19 -2 -12 -5z"/>
<path d="M9188 8173 c7 -3 16 -2 19 1 4 3 -2 6 -13 5 -11 0 -14 -3 -6 -6z"/>
<path d="M9268 8163 c7 -3 16 -2 19 1 4 3 -2 6 -13 5 -11 0 -14 -3 -6 -6z"/>
<path d="M9388 8143 c6 -2 18 -2 25 0 6 3 1 5 -13 5 -14 0 -19 -2 -12 -5z"/>
<path d="M7366 8092 c-7 -12 31 -21 109 -24 28 -2 -359 -3 -860 -3 -1056 0
-1488 -15 -2245 -75 -545 -43 -621 -54 -725 -104 -94 -44 -157 -96 -435 -354
-56 -52 -75 -57 -233 -57 l-149 0 -23 27 c-13 15 -37 70 -55 123 -56 168 -82
185 -282 185 -130 0 -204 -5 -568 -40 -119 -11 -249 -27 -287 -35 -30 -7 -47
-63 -48 -166 -1 -69 -5 -92 -22 -115 -40 -56 -121 -200 -186 -329 -92 -182
-109 -225 -113 -267 l-3 -36 457 4 c251 3 484 10 517 15 115 21 177 60 321
206 170 172 196 186 344 177 58 -4 116 -8 130 -9 14 -2 33 -3 43 -4 10 0 22
-12 27 -26 5 -14 44 -77 86 -140 117 -178 197 -238 354 -269 41 -8 257 -29
480 -45 223 -17 655 -49 960 -72 305 -23 556 -42 556 -43 1 0 -8 -59 -21 -131
-37 -214 -45 -293 -45 -471 0 -93 -5 -176 -10 -184 -7 -11 -10 -2 -10 33 0 48
0 48 -27 43 -16 -4 -80 -2 -143 4 -63 6 -227 15 -365 21 -137 6 -251 15 -253
20 -6 15 -299 12 -306 -3 -5 -10 -7 -10 -12 0 -4 8 -29 12 -74 12 -45 0 -70
-4 -74 -12 -5 -10 -7 -10 -12 0 -8 17 -24 15 -24 -3 0 -8 -9 -15 -21 -15 -11
0 -30 -5 -42 -12 -12 -7 -40 -13 -62 -14 -22 -1 -52 -5 -66 -9 -17 -5 -39 0
-65 13 -22 10 -57 23 -79 26 -22 4 -48 15 -57 23 -20 18 -71 30 -182 43 -45 5
-83 15 -87 22 -11 18 -446 19 -457 1 -5 -7 -57 -17 -127 -24 -71 -8 -125 -18
-133 -26 -9 -9 -26 -11 -53 -7 -26 4 -39 3 -39 -5 0 -18 -41 -13 -98 11 -43
19 -52 27 -48 43 3 11 7 56 10 100 l5 80 -16 -90 c-9 -49 -17 -91 -18 -93 -1
-2 -20 3 -41 11 -179 65 -364 83 -544 52 -101 -16 -204 -51 -257 -87 -21 -14
-54 -35 -73 -46 -19 -11 -44 -29 -55 -39 -12 -10 -40 -33 -63 -51 l-42 -33
-11 28 c-6 15 -12 33 -13 38 -2 6 -8 21 -14 35 -6 14 -22 57 -37 95 -34 91
-43 113 -44 99 -1 -7 15 -56 35 -110 20 -55 39 -110 42 -124 3 -14 8 -27 13
-30 13 -9 24 -64 10 -56 -6 4 -11 1 -11 -6 0 -7 -14 -26 -30 -42 -28 -28 -30
-28 -30 -8 0 15 -6 22 -20 22 -17 0 -20 7 -20 40 0 33 -3 40 -20 40 -13 0 -20
7 -20 20 0 16 -7 20 -30 20 -20 0 -30 5 -30 15 0 10 -10 15 -29 15 -57 0 -91
12 -91 31 0 12 -7 19 -20 19 -11 0 -20 7 -20 15 0 8 -9 15 -20 15 -16 0 -20
-7 -20 -35 0 -28 -4 -35 -20 -35 -13 0 -20 -7 -20 -20 0 -11 -4 -20 -10 -20
-5 0 -10 -9 -10 -20 0 -12 -10 -24 -24 -30 -23 -9 -24 -10 -25 -170 -1 -162 1
-175 44 -305 28 -84 47 -132 75 -190 16 -33 32 -75 35 -94 l7 -34 -44 6 c-24
3 -66 15 -92 27 -26 11 -59 20 -73 20 l-26 0 8 -102 c11 -162 12 -171 23 -213
6 -22 13 -101 16 -175 3 -102 9 -149 25 -193 65 -185 209 -335 468 -492 l100
-60 17 -89 c22 -114 57 -225 112 -355 32 -75 41 -107 33 -112 -7 -4 -39 -12
-73 -19 -34 -6 -77 -16 -96 -22 -177 -55 -241 -99 -221 -151 12 -31 134 -81
321 -130 570 -150 597 -154 1138 -197 144 -11 304 -25 355 -30 396 -42 1007
-119 1502 -190 208 -30 675 -94 810 -110 39 -5 140 -19 225 -30 85 -12 187
-25 225 -30 39 -5 169 -22 290 -39 121 -16 297 -39 390 -51 94 -11 197 -25
230 -30 33 -5 256 -34 495 -65 239 -30 554 -71 700 -90 146 -20 319 -42 385
-50 66 -8 152 -19 190 -25 39 -6 277 -40 530 -76 722 -102 847 -124 1050 -189
193 -61 680 -124 1165 -150 58 -3 258 -14 445 -25 692 -39 831 -43 1423 -37
317 3 651 11 742 17 246 16 606 49 770 70 80 11 181 24 225 30 93 12 216 33
365 62 58 11 116 22 130 25 252 45 651 165 817 246 95 45 150 101 160 160 19
119 -272 230 -882 336 -314 55 -689 110 -750 111 -11 0 25 22 80 49 97 47 197
113 260 171 26 24 60 34 280 80 281 59 625 143 796 194 63 19 161 46 219 61
125 30 150 40 150 58 0 19 -166 -18 -337 -73 -302 -98 -890 -229 -1418 -315
-88 -14 -205 -36 -260 -49 -55 -13 -118 -27 -140 -30 -71 -11 -922 -36 -1226
-36 l-296 0 -41 30 c-23 17 -42 33 -42 36 0 3 13 -4 29 -15 18 -13 46 -21 73
-22 33 0 38 -2 23 -9 -12 -5 79 -8 220 -7 233 1 236 1 80 7 -151 5 -155 6 -60
10 55 2 109 3 120 3 11 -1 110 3 219 8 110 5 209 6 220 2 14 -5 -8 -10 -64
-14 l-85 -5 105 -1 c58 -1 98 1 90 4 -15 6 -30 23 -30 34 0 3 137 12 305 19
168 7 304 14 302 15 -1 2 -123 6 -272 11 -148 4 -280 8 -292 8 -20 1 -34 16
-15 16 75 1 295 11 343 15 35 3 96 7 134 11 122 9 428 52 721 100 149 24 266
28 289 11 20 -15 20 -16 -5 -26 -24 -9 -23 -10 12 -10 20 -1 49 4 64 9 15 6
43 13 63 16 20 3 41 9 46 12 6 4 42 12 80 18 77 12 167 35 175 45 10 12 53 22
46 10 -4 -6 -2 -11 3 -11 6 0 11 5 11 10 0 6 14 10 31 10 18 0 37 7 43 16 9
12 17 13 39 5 21 -8 35 -7 62 6 19 9 32 20 29 24 -3 5 2 22 11 39 17 32 106
80 150 80 12 0 48 11 79 25 31 14 56 22 56 18 0 -3 8 1 18 10 25 23 75 31 101
18 34 -19 26 7 -14 45 -39 36 -44 48 -17 40 9 -2 28 -8 42 -12 24 -6 24 -6 8
13 -17 18 -16 20 15 38 17 10 37 23 42 27 6 5 19 15 30 23 19 13 19 14 -5 8
-24 -5 -25 -5 -5 10 15 12 1 10 -55 -8 -251 -80 -337 -110 -357 -122 -12 -8
-35 -43 -51 -76 -15 -34 -34 -73 -40 -87 l-12 -25 6 25 c4 14 19 53 35 88 15
34 28 66 28 70 0 4 -16 12 -36 17 -47 13 -33 24 24 18 26 -3 65 2 92 10 279
88 379 123 398 136 22 16 47 75 58 142 7 36 -19 118 -92 294 -28 69 -73 149
-79 142 -2 -2 3 -24 11 -48 l15 -44 -23 29 -23 29 -70 -12 c-38 -7 -86 -16
-106 -22 l-38 -10 -1 -62 c-2 -103 -6 -110 -74 -123 -33 -6 -224 -41 -425 -78
-201 -37 -377 -69 -392 -72 l-28 -6 0 159 c0 212 7 262 34 268 12 2 98 16 191
30 437 68 671 108 679 116 6 5 -3 9 -23 9 -19 0 -30 4 -26 10 4 6 12 10 18 9
19 -3 50 13 75 38 13 13 29 23 35 23 17 0 44 61 42 94 0 14 2 26 6 26 4 0 14
33 24 73 25 109 25 110 15 122 -5 6 -3 28 5 55 35 121 47 270 21 270 -8 0 -22
3 -31 6 -11 5 -18 0 -22 -15 -5 -21 -22 -26 -74 -22 -14 1 -38 -3 -54 -9 -36
-14 -247 -52 -298 -54 -38 -1 -53 -13 -82 -60 -7 -11 -34 -21 -80 -27 -69 -11
-69 -11 -93 17 -27 31 -14 31 -257 16 -322 -20 -447 -23 -635 -12 -102 5 -244
12 -315 15 -72 3 -213 10 -315 17 -102 6 -363 12 -580 12 -385 1 -396 0 -442
-21 -27 -12 -52 -32 -57 -45 -15 -35 -32 -129 -25 -139 3 -5 2 -15 -3 -21 -4
-7 -9 -31 -9 -53 -2 -50 -11 -132 -20 -165 -7 -29 -10 -55 -19 -170 -8 -96 -9
-100 -35 -100 -10 0 -21 -6 -23 -12 -4 -9 -8 -10 -14 -2 -4 6 -27 14 -51 18
-45 7 -144 52 -150 67 -2 5 -22 9 -45 9 -48 0 -108 15 -117 29 -8 13 -107 20
-118 9 -6 -6 -21 11 -41 45 -17 30 -31 57 -31 60 0 10 43 15 64 7 38 -15 170
-44 199 -43 15 0 27 -3 27 -7 0 -9 70 -36 83 -32 4 1 21 -5 37 -13 40 -21 60
-19 60 5 0 16 -7 20 -36 20 -27 0 -37 5 -41 19 -5 21 -39 39 -65 35 -10 -1
-18 3 -18 10 0 14 -41 36 -65 36 -8 0 -15 5 -15 10 0 6 -9 10 -20 10 -11 0
-20 5 -20 10 0 6 -9 10 -19 10 -11 0 -26 7 -35 15 -18 18 -36 19 -36 3 0 -9
-4 -8 -10 2 -8 13 -10 12 -10 -2 0 -12 -8 -18 -24 -18 -13 0 -37 -3 -54 -6
-28 -6 -32 -2 -51 32 -40 73 -63 109 -85 134 -12 14 -44 55 -69 92 -124 176
-321 381 -493 510 -80 60 -92 73 -82 86 36 42 342 287 490 392 54 37 72 36
140 -9 172 -113 264 -164 279 -155 7 4 9 3 5 -4 -4 -7 8 -15 31 -21 21 -6 44
-19 53 -30 8 -10 26 -22 40 -25 14 -3 19 -3 13 0 -25 11 -13 24 22 24 32 0 34
-2 26 -22 -5 -13 -14 -22 -21 -20 -6 1 -9 -2 -6 -7 4 -5 0 -12 -6 -14 -7 -3
-1 -6 14 -6 33 -1 79 -21 72 -32 -2 -4 8 -7 23 -5 16 1 33 -1 38 -4 6 -4 26
-10 45 -14 54 -9 73 -13 105 -21 28 -7 29 -6 11 7 -18 14 -16 15 22 22 27 4
42 11 42 21 0 22 22 30 36 11 8 -11 13 -13 16 -5 3 9 12 9 40 0 61 -20 89 -71
38 -71 -10 0 -22 -4 -25 -10 -4 -6 5 -10 20 -10 14 0 91 -11 171 -25 157 -27
194 -30 194 -16 0 10 -48 22 -166 42 -153 26 -150 25 -131 33 9 5 17 14 17 20
0 14 41 36 66 36 24 0 94 24 94 33 0 5 5 5 10 2 6 -3 10 -1 10 4 0 6 16 11 35
11 22 0 38 6 41 14 3 8 12 12 19 10 7 -3 34 5 60 19 l48 24 -92 13 c-96 14
-129 36 -38 26 28 -4 257 -8 507 -11 303 -3 456 -8 458 -15 2 -5 21 -10 42
-10 71 0 72 -3 30 -88 -21 -42 -59 -99 -83 -126 l-44 -49 -69 2 c-38 1 -131 8
-207 15 -138 12 -138 12 -132 -8 13 -42 10 -60 -10 -64 -29 -5 -48 -12 -44
-16 2 -2 99 -18 214 -36 179 -28 212 -36 227 -54 11 -14 13 -23 6 -27 -17 -11
0 -42 18 -35 12 5 15 2 10 -9 -3 -9 -2 -14 3 -11 5 3 16 -5 24 -18 20 -30 82
-96 72 -76 -5 8 -13 22 -20 30 -18 25 -35 70 -25 70 5 0 11 -9 15 -19 4 -13
12 -17 25 -14 10 3 33 -2 51 -11 18 -9 33 -16 35 -16 1 0 -2 14 -7 32 -5 17
-6 34 -4 37 3 2 5 -1 5 -8 0 -7 5 -9 12 -5 6 4 9 3 6 -2 -4 -5 177 -9 440 -9
l447 0 57 -27 c45 -21 61 -35 78 -68 l21 -42 62 7 c34 4 70 12 80 17 27 14 39
55 25 81 -6 12 -10 42 -9 66 2 47 -8 61 -46 61 -13 0 -32 9 -44 21 -16 16 -20
28 -14 55 7 40 -11 47 -25 9 -20 -52 -31 -31 -101 177 -21 64 -39 127 -39 139
0 12 -8 28 -17 35 -17 12 -16 13 4 14 27 0 55 -34 84 -105 12 -30 26 -55 29
-55 4 0 12 28 18 63 12 74 28 117 42 117 13 0 30 -43 30 -77 0 -37 11 -22 12
17 1 37 14 45 49 31 17 -7 19 -10 7 -10 -19 -1 -26 -21 -8 -21 6 0 10 -14 10
-30 0 -17 7 -41 15 -53 12 -19 13 -48 6 -175 -5 -84 -7 -162 -4 -173 4 -14 15
-19 42 -21 53 -2 85 2 95 13 6 5 42 9 80 10 53 0 66 3 51 10 -14 7 -7 8 28 4
37 -4 47 -2 47 10 0 11 11 15 40 15 52 0 51 11 -2 33 -54 22 -100 56 -77 57 9
0 41 -9 72 -19 35 -12 57 -16 57 -9 0 10 23 8 93 -10 l37 -10 0 43 c0 25 -5
46 -12 49 -10 3 -8 8 4 16 19 12 16 26 -41 179 -17 47 -29 86 -28 88 2 2 21
-40 41 -93 21 -52 40 -93 43 -90 5 5 -27 98 -73 211 -16 39 -23 78 -23 112 1
38 -4 59 -20 82 -26 36 -26 36 -83 17 -162 -52 -396 -83 -799 -106 -262 -15
-898 -13 -1164 5 -126 8 -246 15 -265 16 l-35 1 30 8 c28 7 28 8 5 9 -14 1
-36 8 -50 16 -14 8 -35 14 -47 15 -13 0 -23 4 -23 9 0 5 -33 12 -72 16 -40 4
-80 13 -88 20 -8 7 -28 15 -45 18 -16 3 -57 12 -90 21 -33 8 -72 15 -88 16
-15 0 -35 4 -45 10 -9 5 -89 23 -177 40 -88 17 -194 37 -235 45 -41 8 -102 18
-135 21 -33 4 -116 24 -185 46 -251 80 -352 105 -589 149 -244 45 -501 84
-811 124 -291 37 -336 41 -342 26 -2 -6 -44 -6 -113 0 -60 6 -126 9 -147 6
-20 -3 -41 0 -47 6 -7 7 -15 6 -25 -2 -12 -10 -37 -10 -118 -1 -198 23 -208
24 -208 5 0 -11 -5 -15 -15 -11 -19 7 -55 -14 -55 -31 0 -7 22 -14 53 -17 96
-10 212 -24 242 -29 17 -3 91 -10 165 -17 74 -6 149 -13 165 -15 139 -18 269
-37 315 -45 30 -6 107 -15 170 -21 63 -5 131 -14 150 -19 19 -5 69 -14 110
-19 348 -49 505 -80 638 -128 23 -9 42 -19 42 -24 0 -14 -64 -7 -158 18 -98
26 -134 26 -60 0 43 -15 42 -15 -84 -16 -85 -1 -181 7 -295 23 -92 14 -253 34
-358 46 -104 11 -221 25 -260 30 -64 9 -162 15 -397 24 -87 3 -88 3 -88 -20 0
-20 5 -24 29 -24 16 0 32 -6 35 -12 5 -10 7 -10 12 0 7 14 34 16 34 2 0 -5 7
-10 15 -10 8 0 15 -7 15 -15 0 -8 9 -15 20 -15 11 0 20 -4 20 -10 0 -5 7 -10
15 -10 8 0 15 -5 15 -11 0 -6 6 -17 14 -25 11 -11 16 -11 20 -1 5 9 7 9 12 0
3 -7 14 -13 25 -13 10 0 19 -4 19 -10 0 -5 14 -10 30 -10 20 0 30 -5 30 -15 0
-9 12 -18 30 -21 17 -4 30 -10 30 -14 0 -29 698 -29 800 0 67 19 109 12 263
-42 31 -11 60 -24 62 -29 3 -4 -63 -59 -147 -122 -84 -63 -206 -160 -271 -216
-65 -56 -123 -101 -129 -101 -6 0 -49 22 -97 49 -210 120 -429 197 -691 242
-114 19 -423 17 -552 -4 -110 -19 -280 -64 -339 -90 -19 -8 -52 -21 -74 -28
-22 -7 -47 -18 -55 -24 -8 -7 -35 -22 -60 -34 -25 -13 -66 -34 -92 -47 -50
-25 -78 -30 -78 -15 0 5 -10 9 -22 10 -43 1 -113 13 -118 20 -9 13 -184 41
-252 41 -60 0 -68 2 -68 19 0 10 -6 21 -13 24 -18 7 -67 -3 -67 -14 0 -5 -9
-9 -20 -9 -11 0 -20 7 -20 15 0 10 -10 15 -34 15 -44 0 -53 12 -61 93 -7 64
-6 67 14 67 27 0 27 17 1 25 -23 7 -29 65 -7 65 8 0 8 3 -2 9 -17 11 -9 83 43
387 19 111 36 234 37 273 1 43 6 71 13 72 6 0 112 2 236 5 124 3 263 6 309 7
84 2 85 2 92 -25 5 -19 3 -28 -4 -28 -8 0 -8 -3 -2 -8 6 -4 19 -20 29 -37 31
-51 69 -86 118 -111 52 -27 171 -55 221 -53 26 1 28 2 7 6 -92 14 -172 42
-163 56 4 6 0 8 -10 4 -22 -8 -49 2 -40 16 3 5 2 7 -4 4 -22 -14 -114 97 -128
154 -6 26 -5 27 42 33 26 3 111 10 188 16 153 11 205 19 205 29 0 4 -9 13 -20
21 -11 8 -20 21 -20 29 0 30 -40 49 -133 60 -102 13 -227 13 -227 0 0 -5 -7
-9 -16 -9 -13 0 -13 4 3 30 l17 30 161 2 c88 1 205 0 260 -1 55 -2 97 0 94 3
-10 10 -322 46 -401 46 -37 0 -70 -4 -73 -10 -3 -5 -14 -10 -23 -10 -12 0 -13
3 -5 11 7 7 8 21 3 38 -10 34 -116 295 -131 322 -19 37 -20 14 0 -47 41 -131
50 -161 56 -196 8 -40 -8 -55 -20 -19 -3 12 -19 21 -42 26 -39 7 -63 25 -63
48 0 11 -20 16 -77 22 -71 7 -79 10 -112 44 -20 21 -49 41 -64 45 -18 4 -27
13 -27 26 0 25 -67 56 -91 42 -9 -6 -41 -13 -72 -17 l-57 -7 0 56 c0 47 -4 61
-25 81 -13 14 -35 25 -48 25 -14 0 -30 7 -37 15 -7 8 -16 12 -21 9 -5 -3 -9
-1 -9 5 0 15 -63 145 -74 153 -17 11 -46 -12 -46 -37 0 -13 5 -27 10 -30 13
-8 13 -55 0 -55 -6 0 -24 16 -41 35 -17 19 -37 35 -45 35 -8 0 -14 7 -14 15 0
9 -7 18 -16 22 -16 6 -64 50 -64 59 0 3 15 2 34 -2 34 -6 35 -5 45 34 6 22 20
51 31 65 27 34 25 48 -7 79 -42 39 -69 49 -134 51 -59 2 -61 1 -76 -30 -8 -18
-21 -33 -28 -33 -24 0 -26 -42 -2 -62 44 -36 48 -40 43 -45 -8 -8 -78 49 -86
71 -4 12 -3 29 2 39 17 32 0 57 -38 57 -42 0 -43 -8 -2 -42 26 -22 29 -28 14
-28 -19 0 -40 15 -151 115 -38 34 -89 78 -112 96 -274 220 -259 209 -305 209
-28 0 -38 3 -29 9 9 6 0 11 -30 15 -119 16 -147 18 -153 8z m-5632 -389 c-10
-16 -30 -46 -46 -67 -15 -21 -28 -44 -28 -49 0 -16 -51 -99 -57 -93 -3 3 1 16
9 28 8 13 23 57 33 98 24 103 29 110 72 110 l35 0 -18 -27z m1186 -331 l0 -47
50 55 50 55 -37 -65 c-67 -119 -81 -123 -83 -25 -2 82 -1 87 10 80 6 -3 10
-27 10 -53z m4974 -280 c78 -26 210 -109 267 -167 57 -58 109 -149 94 -164 -7
-6 -81 -6 -215 2 -192 11 -199 12 -115 18 50 3 85 6 79 7 -6 1 -118 11 -248
22 -131 12 -252 27 -269 34 -28 11 4 14 258 21 159 4 320 5 357 2 37 -3 68 -4
68 -2 0 2 -19 23 -42 45 -57 56 -179 115 -303 148 -77 21 -238 35 -333 29
-132 -8 -101 1 60 18 158 17 267 12 342 -13z m-511 -19 c-7 -2 -21 -2 -30 0
-10 3 -4 5 12 5 17 0 24 -2 18 -5z m-77 -20 c-55 -29 -56 -34 -11 -73 23 -19
58 -43 76 -54 40 -22 23 -34 -22 -16 -16 7 -32 10 -35 7 -10 -9 99 -84 146
-101 44 -15 44 -15 13 -16 -19 0 -42 -9 -53 -20 -11 -11 -23 -20 -27 -21 -5 0
-15 -5 -23 -10 -11 -6 -9 -8 10 -8 48 1 312 -30 318 -37 4 -3 -31 -4 -78 0
-132 10 -401 15 -310 6 60 -6 49 -7 -55 -4 -135 3 -152 -9 -29 -20 39 -3 150
-9 245 -12 156 -5 249 -16 249 -29 0 -3 -78 -4 -172 -3 -95 0 -153 4 -128 7
39 6 33 7 -49 14 -52 4 -131 7 -176 7 -82 0 -83 0 -81 25 1 23 5 25 54 25 39
0 52 4 52 15 0 8 -3 14 -7 14 -23 -4 -70 2 -83 10 -12 8 -12 18 4 68 34 107
67 163 119 204 27 21 56 39 65 39 11 -1 6 -7 -12 -17z m-1380 -276 c28 -5 39
2 47 28 3 11 12 38 20 59 l15 40 7 -42 7 -42 48 0 c40 0 50 -4 55 -20 6 -18
15 -20 81 -20 43 0 74 -4 74 -10 0 -5 22 -10 48 -10 27 0 73 -4 103 -10 30 -5
189 -11 354 -12 l300 -3 -3 -37 c-2 -25 5 -54 22 -88 l25 -50 -23 0 c-13 0
-90 6 -172 14 -82 8 -189 17 -239 20 -49 4 -145 11 -212 16 -68 6 -180 15
-250 20 -71 6 -185 15 -254 22 l-127 11 5 101 c6 148 13 165 31 84 12 -56 18
-67 38 -71z m444 28 c0 -30 -4 -31 -30 -5 -26 26 -25 30 5 30 20 0 25 -5 25
-25z m350 17 c0 -13 -12 -22 -22 -16 -10 6 -1 24 13 24 5 0 9 -4 9 -8z m923
-29 c-18 -2 -48 -2 -65 0 -18 2 -4 4 32 4 36 0 50 -2 33 -4z m155 -10 c-21 -2
-57 -2 -80 0 -24 2 -7 4 37 4 44 0 63 -2 43 -4z m-2065 -183 c64 -5 235 -19
380 -30 447 -35 1110 -90 1152 -96 22 -3 58 -15 81 -26 38 -20 44 -20 80 -6
21 8 55 14 74 13 122 -7 220 -18 220 -27 0 -19 -21 -48 -34 -48 -18 0 -26 -22
-26 -74 0 -58 21 -73 112 -79 98 -6 148 -24 155 -58 4 -22 11 -26 41 -27 52
-3 186 19 194 31 4 6 12 4 22 -5 11 -12 27 -15 57 -11 29 4 44 2 50 -8 6 -10
9 -10 9 -1 0 6 9 12 20 12 11 0 20 5 20 10 0 7 34 10 95 9 53 -1 97 0 98 2 12
18 27 83 27 114 0 38 0 38 -36 32 -42 -7 -64 0 -64 19 0 8 -8 14 -17 14 -29 0
-1 15 62 34 33 10 65 22 70 26 6 4 43 22 84 39 l74 31 -7 -72 c-8 -74 -20
-164 -57 -403 -11 -71 -23 -203 -26 -292 l-6 -162 -46 4 c-25 2 -47 9 -49 14
-4 13 -42 15 -42 2 0 -5 -21 -12 -47 -15 -98 -11 -133 -18 -133 -27 0 -5 -18
-9 -39 -9 -22 0 -43 -4 -46 -10 -14 -23 -135 -3 -135 22 0 4 -9 8 -20 8 -11 0
-20 5 -20 10 0 6 -9 10 -20 10 -11 0 -20 5 -20 10 0 6 -22 10 -49 10 -28 0
-51 5 -53 11 -2 7 -36 14 -81 17 -42 2 -77 9 -77 13 0 5 -12 9 -26 9 -15 0
-34 8 -43 18 -12 14 -31 18 -86 18 -38 1 -88 6 -110 12 -22 6 -74 18 -115 27
-41 9 -82 21 -92 26 -9 5 -50 9 -92 9 -46 0 -80 5 -88 13 -9 8 -58 12 -163 13
-160 1 -385 22 -385 36 0 4 -44 8 -99 8 -139 0 -221 10 -221 26 0 8 -6 14 -14
14 -8 0 -21 3 -30 6 -11 4 -16 1 -16 -10 0 -13 -11 -16 -50 -16 -38 0 -50 4
-50 15 0 11 -12 15 -42 16 -24 1 -61 3 -83 4 -119 10 -415 27 -447 26 l-38 -1
-1 113 c-1 158 0 192 12 277 11 81 46 274 55 303 6 20 27 21 197 7z m5112
-290 l20 -9 -20 1 c-11 0 -31 4 -45 8 l-25 8 25 0 c14 0 34 -3 45 -8z m165
-19 l45 -8 -60 -1 c-33 0 -73 4 -90 8 -27 7 -26 8 15 8 25 0 65 -3 90 -7z
m277 -37 c-3 -3 -12 -4 -19 -1 -8 3 -5 6 6 6 11 1 17 -2 13 -5z m-5247 -404
c0 -5 -4 -10 -10 -10 -5 0 -10 5 -10 10 0 6 5 10 10 10 6 0 10 -4 10 -10z
m-3720 -38 c95 -26 172 -60 165 -72 -3 -6 1 -7 9 -4 13 5 16 -3 16 -50 0 -67
-9 -70 -97 -29 -112 51 -178 63 -348 63 -66 0 -133 0 -149 0 -15 0 -35 -5 -42
-11 -8 -6 -14 -9 -14 -5 0 3 -22 -5 -50 -19 -27 -14 -58 -25 -70 -25 -11 0
-20 -4 -20 -10 0 -5 -18 -14 -39 -21 -21 -6 -50 -21 -63 -33 -13 -11 -31 -25
-40 -31 -9 -5 -36 -26 -60 -45 -23 -19 -37 -27 -29 -17 12 15 11 17 -2 17 -9
0 -17 -11 -20 -27 l-4 -28 -2 27 c-1 22 16 45 87 115 48 49 101 95 118 103 16
8 31 17 34 20 12 12 108 58 145 70 136 45 340 50 475 12z m10735 -33 l110 -19
-90 6 c-145 10 -262 21 -237 23 12 0 22 6 22 12 0 8 13 9 43 4 23 -4 92 -15
152 -26z m-672 -6 c-7 -2 -21 -2 -30 0 -10 3 -4 5 12 5 17 0 24 -2 18 -5z
m870 -20 c-7 -2 -21 -2 -30 0 -10 3 -4 5 12 5 17 0 24 -2 18 -5z m2677 -24 c0
-27 -85 -84 -147 -99 -35 -8 -63 -23 -84 -43 -29 -30 -31 -30 -26 -9 5 23 4
23 -44 19 -27 -3 -49 -1 -49 4 0 5 15 9 34 9 40 0 54 14 29 29 -10 6 -13 11
-8 11 6 0 3 5 -5 10 -23 14 14 38 70 45 37 4 193 28 223 34 4 0 7 -4 7 -10z
m-13302 -66 c12 -13 22 -21 22 -18 0 4 18 -8 40 -25 22 -17 37 -37 34 -42 -4
-7 -2 -8 4 -4 20 12 170 -150 157 -168 -3 -3 -2 -4 2 -1 12 9 42 -26 36 -43
-4 -10 -2 -13 5 -8 7 4 12 2 12 -6 0 -7 16 -31 35 -53 19 -22 35 -47 35 -57 0
-9 6 -18 12 -20 8 -3 3 -10 -12 -18 -20 -11 -25 -11 -29 1 -2 8 -52 63 -110
123 -117 120 -109 113 -168 158 -99 77 -131 98 -151 98 -20 0 -22 5 -22 63 0
35 3 66 6 70 9 9 65 -22 92 -50z m12561 -32 c11 -11 27 -33 35 -49 l15 -30
-122 -7 c-180 -9 -722 -2 -722 10 0 6 77 13 198 16 109 4 201 10 205 14 4 4
-26 5 -66 3 -39 -1 -72 0 -72 3 0 19 -64 29 -180 29 -85 0 -130 4 -130 11 0 5
3 8 8 6 4 -3 149 -1 322 2 533 13 488 13 509 -8z m931 -51 c0 -5 -2 -10 -4
-10 -3 0 -8 5 -11 10 -3 6 -1 10 4 10 6 0 11 -4 11 -10z m-2927 -7 c-7 -2 -21
-2 -30 0 -10 3 -4 5 12 5 17 0 24 -2 18 -5z m-403 -32 c0 -5 -10 -11 -22 -13
-24 -3 -35 -30 -37 -90 -1 -41 -7 -45 -36 -24 -15 11 -17 22 -12 65 3 28 9 56
12 61 8 13 95 13 95 1z m190 -27 c0 -3 -8 -19 -17 -35 -14 -23 -25 -29 -50
-29 -36 0 -39 6 -21 45 9 20 18 25 50 25 21 0 38 -3 38 -6z m1465 -81 c-15
-39 -63 -244 -68 -297 l-3 -29 -70 2 c-38 1 -73 7 -78 12 -6 5 -2 9 11 9 38 0
62 33 113 155 28 66 55 130 60 143 12 27 46 32 35 5z m-3805 -76 c273 -59 454
-135 668 -279 51 -34 72 -54 68 -64 -3 -8 -2 -13 3 -10 4 3 31 -16 60 -42 l52
-48 -33 -2 c-48 -3 -91 -16 -95 -29 -6 -17 27 -31 103 -43 38 -6 80 -19 94
-29 38 -27 108 -133 200 -302 107 -196 182 -343 200 -394 12 -33 26 -69 32
-79 8 -15 7 -22 -4 -30 -9 -8 -13 -27 -10 -66 l3 -55 -20 40 c-28 58 -71 155
-71 161 0 17 -130 261 -185 345 -88 136 -155 218 -261 319 -274 263 -556 402
-924 456 -277 40 -613 -15 -844 -138 -97 -52 -159 -94 -241 -163 -33 -28 -73
-62 -89 -75 -16 -14 -38 -35 -49 -47 -22 -24 -112 -42 -129 -25 -15 15 41 99
57 84 5 -4 5 -2 1 5 -7 13 130 163 150 163 7 0 16 5 20 12 5 7 2 8 -7 3 -28
-15 57 56 111 94 193 135 374 208 609 246 107 18 435 13 531 -8z m-9142 -155
c-29 -44 -63 -98 -76 -119 -13 -21 -20 -29 -16 -18 3 11 10 34 14 52 10 41 52
113 93 160 54 61 44 14 -15 -75z m922 -76 c0 -2 -7 -7 -16 -10 -8 -3 -12 -2
-9 4 6 10 25 14 25 6z m40 -20 c0 -3 -4 -8 -10 -11 -5 -3 -10 -1 -10 4 0 6 5
11 10 11 6 0 10 -2 10 -4z m28 -32 c-9 -9 -21 -13 -27 -9 -16 10 -3 25 22 25
20 0 20 -1 5 -16z m29 -21 c-9 -9 -19 -14 -23 -11 -10 10 6 28 24 28 15 0 15
-1 -1 -17z m13013 -12 c0 -4 -9 -7 -20 -7 -11 0 -20 6 -20 12 0 7 8 10 20 7
11 -3 20 -8 20 -12z m-12969 -6 c0 -5 -9 -11 -21 -13 -15 -3 -18 1 -14 13 7
17 35 17 35 0z m13039 -6 c0 -5 -15 -8 -32 -8 -18 1 -25 3 -15 6 9 2 15 8 12
13 -3 4 4 6 15 3 11 -3 20 -9 20 -14z m-13000 -18 c0 -9 -24 -21 -42 -21 -6 0
-6 6 2 15 14 16 40 20 40 6z m30 -31 c0 -5 -9 -14 -19 -19 -14 -8 -20 -7 -24
3 -3 8 -3 17 0 20 10 10 43 7 43 -4z m25 -30 c3 -6 -4 -14 -17 -19 -29 -11
-35 -6 -18 14 14 17 26 19 35 5z m-407 -46 c47 -18 48 -22 57 -169 5 -92 3
-118 -12 -162 -10 -29 -22 -53 -28 -54 -5 0 -22 33 -37 74 l-27 74 20 79 c25
95 18 120 -36 130 -98 18 -242 -21 -290 -78 -30 -35 -75 -131 -75 -158 0 -15
147 -314 170 -345 23 -31 112 -216 106 -222 -3 -3 -8 -4 -10 -2 -7 7 -280 470
-320 542 l-37 68 20 32 c27 44 128 140 171 162 77 40 142 55 217 50 39 -2 90
-12 111 -21z m439 10 c5 -14 -22 -25 -42 -18 -12 5 -13 9 -4 21 14 16 40 14
46 -3z m22 -33 c11 -7 9 -10 -8 -16 -25 -8 -36 -2 -26 14 8 13 15 14 34 2z
m31 -52 c0 -5 -9 -9 -20 -9 -19 0 -27 20 -13 33 7 8 33 -11 33 -24z m-279 -66
c153 -160 255 -409 283 -688 l6 -60 -62 -35 c-35 -19 -69 -36 -76 -38 -16 -4
-102 45 -102 59 0 16 64 109 76 109 6 0 31 -7 55 -15 40 -15 45 -14 56 2 15
19 12 44 -23 183 -27 111 -71 223 -111 283 -28 42 -113 107 -139 107 -18 0
-62 -91 -155 -315 -41 -99 -75 -171 -77 -160 -4 29 203 615 217 615 4 0 27
-21 52 -47z m296 32 c0 -8 -6 -15 -14 -15 -7 0 -13 7 -13 15 0 8 6 15 13 15 8
0 14 -7 14 -15z m2163 -25 c3 -5 57 -13 120 -18 63 -6 116 -15 118 -21 2 -6
21 -11 42 -11 21 0 41 -6 43 -12 4 -10 8 -9 16 2 10 13 12 13 21 0 9 -13 11
-13 20 0 8 13 11 13 19 1 6 -10 27 -12 80 -9 l71 4 0 -33 c0 -18 -5 -33 -11
-33 -7 0 -9 -15 -5 -42 4 -31 3 -37 -3 -23 -5 11 -10 30 -10 43 -1 29 -41 32
-41 2 0 -19 -7 -20 -220 -20 -213 0 -220 -1 -220 -20 0 -18 -7 -20 -80 -20
-73 0 -80 -2 -80 -20 0 -13 -7 -20 -20 -20 -11 0 -20 5 -20 10 0 25 -31 7 -37
-21 -3 -17 -12 -33 -19 -36 -21 -8 -17 -33 6 -33 14 0 18 -5 13 -16 -6 -16
-26 -16 -158 0 -22 3 -71 7 -109 11 -38 3 -77 10 -88 16 -10 5 -23 7 -28 4 -5
-3 -40 -1 -77 5 -37 7 -102 15 -143 20 -107 12 -472 69 -478 75 -3 3 0 5 7 5
9 0 12 9 9 25 -7 32 6 41 67 50 27 4 61 13 75 20 14 7 61 20 105 30 111 23
155 37 155 47 0 4 15 8 34 8 19 0 38 5 41 10 3 6 33 10 66 10 32 0 59 4 59 10
0 5 49 11 113 13 162 4 541 -5 547 -13z m-2144 -27 c-10 -11 -19 -7 -22 10 -2
15 0 16 12 6 8 -6 12 -14 10 -16z m6381 -15 c-3 -8 -6 -5 -6 6 -1 11 2 17 5
13 3 -3 4 -12 1 -19z m107 7 c-4 -8 -7 -15 -9 -15 -2 0 -5 7 -9 15 -3 9 0 15
9 15 9 0 12 -6 9 -15z m1350 -83 c3 -5 -1 -9 -9 -9 -8 0 -12 4 -9 9 3 4 7 8 9
8 2 0 6 -4 9 -8z m-9384 -22 c19 -11 31 -19 25 -19 -5 0 -26 8 -45 19 -19 11
-30 19 -25 19 6 0 26 -8 45 -19z m9445 1 c-8 -14 -35 -14 -35 0 0 6 7 9 15 5
8 -3 15 0 15 6 0 6 3 9 6 5 3 -3 3 -10 -1 -16z m66 -14 c-11 -11 -61 -19 -61
-10 0 3 8 11 17 18 20 15 60 8 44 -8z m47 -15 c2 -7 -4 -15 -13 -18 -20 -8
-27 -1 -19 20 7 18 25 17 32 -2z m-9478 -2 c18 -12 2 -12 -25 0 -13 6 -15 9
-5 9 8 0 22 -4 30 -9z m9550 -11 c0 -3 -8 -13 -17 -21 -19 -15 -43 -18 -43 -5
0 4 0 14 0 22 0 11 9 15 30 13 17 -1 30 -5 30 -9z m44 -18 c3 -4 -6 -19 -19
-31 -14 -13 -25 -18 -25 -11 0 7 -5 9 -11 5 -8 -5 -8 -1 0 14 14 27 45 40 55
23z m48 -53 c-14 -14 -26 -17 -46 -12 l-27 6 21 24 c19 19 26 21 47 11 23 -10
23 -11 5 -29z m5189 15 c-12 -20 -14 -14 -5 12 4 9 9 14 11 11 3 -2 0 -13 -6
-23z m-14395 -23 c37 -17 73 -38 80 -48 20 -26 76 -124 72 -127 -2 -1 -30 -5
-63 -9 l-60 -6 -44 65 c-25 36 -49 64 -55 62 -38 -12 -69 -171 -70 -357 0
-143 0 -146 33 -222 52 -120 31 -117 286 -39 121 37 222 66 224 65 16 -13 -25
-38 -131 -79 -67 -26 -180 -74 -250 -106 l-128 -57 -19 62 c-35 113 -46 206
-45 381 1 121 6 192 18 245 25 113 56 200 71 200 7 0 44 -14 81 -30z m9263 1
c10 -7 8 -12 -10 -25 -23 -16 -49 -21 -49 -10 0 3 5 14 10 25 11 20 27 24 49
10z m5101 -36 c-55 -58 -430 -136 -940 -195 -96 -11 -191 -19 -210 -19 -19 1
19 7 85 15 450 50 611 76 878 141 124 30 152 41 175 64 14 16 28 26 31 24 2
-3 -6 -16 -19 -30z m-5051 1 c9 -10 6 -17 -13 -30 -23 -14 -26 -14 -41 0 -12
12 -13 19 -4 30 15 18 43 18 58 0z m-8531 -120 c36 -93 42 -116 30 -116 -15 0
-101 50 -110 64 -11 16 -9 61 4 93 6 15 12 33 13 38 1 6 3 15 4 20 3 17 35
-35 59 -99z m8572 62 c-39 -32 -65 -13 -30 22 18 18 24 19 37 9 13 -12 13 -15
-7 -31z m-6190 12 c0 -5 -16 -10 -35 -10 -19 0 -35 5 -35 10 0 6 16 10 35 10
19 0 35 -4 35 -10z m6243 -24 c17 -13 16 -15 -11 -34 l-28 -21 -13 20 c-9 16
-9 24 0 35 14 17 29 17 52 0z m-6350 -3 c-13 -2 -35 -2 -50 0 -16 2 -5 4 22 4
28 0 40 -2 28 -4z m116 -19 c2 -2 -19 -4 -48 -4 -31 0 -50 4 -46 10 5 8 84 4
94 -6z m184 -24 c-12 -5 -34 -5 -50 0 -24 7 -21 8 22 9 38 0 45 -2 28 -9z
m6104 -6 c2 -6 -8 -16 -21 -22 -19 -8 -27 -8 -36 3 -8 10 -7 16 7 24 21 13 45
10 50 -5z m-616 -43 l65 -21 13 -157 13 -157 -43 -83 c-23 -46 -46 -83 -51
-83 -4 0 -8 1 -8 3 0 2 -18 47 -40 100 l-39 97 35 98 c33 92 34 99 20 129 -13
27 -23 33 -63 40 -134 23 -311 0 -423 -55 -85 -41 -188 -190 -174 -250 8 -31
56 -115 260 -459 79 -133 144 -244 144 -248 0 -4 -7 -5 -16 -3 -9 2 -42 42
-73 90 -31 48 -147 223 -258 389 l-203 301 21 29 c32 46 171 151 253 192 124
62 198 77 361 73 108 -3 155 -8 206 -25z m657 -3 c4 -19 -40 -38 -46 -19 -2 6
-8 9 -13 5 -13 -8 -11 10 3 24 17 17 52 11 56 -10z m42 -45 c0 -17 -25 -27
-47 -19 -15 6 -15 8 2 20 23 17 45 16 45 -1z m3598 -10 c-15 -2 -42 -2 -60 0
-18 2 -6 4 27 4 33 0 48 -2 33 -4z m-11503 -17 c22 -3 236 -33 475 -66 1403
-195 1278 -177 1232 -179 -19 0 -93 8 -165 18 -73 11 -235 34 -362 51 -126 17
-306 42 -400 55 -93 13 -258 35 -365 50 -319 42 -474 67 -485 78 -7 6 -3 7 10
4 11 -3 38 -8 60 -11z m11363 7 c-21 -2 -55 -2 -75 0 -21 2 -4 4 37 4 41 0 58
-2 38 -4z m-3418 -38 c0 -18 -25 -26 -38 -13 -8 8 -8 17 -1 30 8 15 13 17 25
7 8 -6 14 -17 14 -24z m-432 -54 c158 -126 303 -326 381 -531 46 -118 98 -371
89 -429 -2 -19 -23 -31 -113 -67 -60 -24 -115 -44 -122 -44 -19 0 -163 72
-163 81 0 5 28 38 63 74 l62 65 70 -18 c39 -11 79 -22 90 -25 31 -10 58 40 49
90 -36 208 -154 474 -250 565 -37 34 -159 98 -188 98 -34 0 -65 -39 -188 -240
-223 -362 -233 -376 -236 -354 -3 21 386 774 399 774 4 0 29 -18 57 -39z m454
1 c-6 -16 -7 -15 -10 1 -2 9 -8 14 -14 11 -7 -4 -8 -2 -4 4 11 17 36 3 28 -16z
m3550 -58 c11 -24 16 -26 55 -21 28 3 43 1 44 -7 1 -16 5 -33 23 -105 10 -35
16 -64 14 -66 -11 -8 -114 -28 -238 -45 -194 -28 -270 -46 -299 -73 -33 -30
-85 -144 -156 -340 l-60 -165 -67 -6 c-171 -17 -1069 -3 -1238 20 -67 9 -107
31 -119 66 -6 17 -10 33 -8 34 2 2 21 -5 42 -16 22 -11 45 -20 52 -20 7 0 13
-6 13 -14 0 -15 45 -22 195 -30 63 -4 81 -2 60 4 -25 8 -22 9 19 5 27 -3 75
-5 108 -5 33 0 57 -4 54 -8 -11 -18 444 -28 461 -11 8 8 35 8 98 0 107 -13
150 1 54 17 -151 26 -225 33 -719 72 -259 20 -408 36 -435 47 -12 4 -14 14 -9
42 4 20 7 37 8 38 8 10 143 30 150 22 20 -19 23 -6 18 91 -3 71 -1 100 7 100
16 0 15 157 -1 163 -9 3 -6 11 10 24 12 11 22 25 22 32 0 6 9 11 20 11 11 0
20 7 20 15 0 8 12 17 28 20 15 3 41 10 58 15 43 14 64 12 70 -5 4 -8 10 -15
16 -15 5 0 7 4 3 9 -3 5 15 9 42 8 50 -1 143 22 143 35 0 10 -234 0 -290 -13
-70 -16 -123 -30 -148 -40 -13 -5 -34 -9 -47 -9 -18 0 -25 -6 -25 -18 0 -11
-9 -27 -20 -37 -15 -14 -20 -31 -20 -69 0 -33 -3 -46 -9 -37 -7 11 -10 10 -14
-5 -2 -10 -5 13 -6 52 -1 53 3 75 14 84 8 7 15 17 15 22 0 12 27 39 43 42 6 2
19 6 27 9 37 16 172 40 245 44 44 2 170 6 280 8 110 3 233 7 273 9 73 5 98 -6
41 -18 -17 -3 -93 -6 -168 -6 -82 0 -131 -4 -122 -9 12 -8 86 -8 396 1 34 1
46 3 28 5 -18 2 -33 8 -33 13 0 9 73 18 190 24 36 2 77 7 92 11 24 6 250 15
576 23 l112 2 12 -26z m-12443 -97 c80 -52 175 -109 210 -127 35 -19 65 -40
68 -48 8 -21 -16 -158 -44 -247 -57 -179 -157 -327 -273 -400 -51 -32 -51 -33
-106 85 -37 81 -39 89 -36 170 2 46 6 87 9 90 2 3 24 -17 48 -44 41 -48 43
-52 50 -137 7 -101 19 -120 60 -93 45 30 124 133 167 221 41 83 43 91 46 194
2 68 0 115 -8 129 -6 11 -37 40 -68 63 -119 88 -282 219 -282 228 0 5 3 9 6 9
4 0 72 -42 153 -93z m-231 41 c9 17 19 32 23 32 8 0 -19 -111 -30 -123 -10
-10 -51 84 -51 115 1 19 4 16 22 -17 l21 -40 15 33z m2387 -62 c290 -40 436
-59 780 -104 l50 -7 6 -60 c5 -56 6 -57 7 -15 4 76 -7 75 243 40 123 -17 305
-42 404 -55 99 -14 216 -30 260 -35 44 -6 125 -17 180 -25 98 -14 218 -30 445
-60 222 -30 406 -55 550 -75 80 -11 262 -36 405 -55 143 -19 287 -40 320 -46
61 -11 128 -42 178 -83 l28 -22 -24 -35 c-15 -21 -31 -33 -43 -32 -81 8 -612
68 -749 84 -93 11 -215 24 -270 29 -55 5 -131 14 -170 19 -38 5 -135 17 -215
25 -80 9 -203 23 -275 31 -71 9 -170 20 -220 25 -49 6 -142 16 -205 24 -63 8
-162 19 -220 26 -58 6 -141 15 -185 20 -44 5 -143 17 -220 26 -217 25 -207 21
-221 79 l-12 50 -1 -47 c0 -25 -6 -48 -12 -50 -6 -2 -100 6 -208 19 -108 13
-241 28 -296 33 -55 6 -111 12 -125 15 -14 3 -65 9 -115 15 -49 5 -189 21
-310 35 -235 27 -278 32 -564 64 -101 11 -192 23 -202 26 -20 7 -44 58 -36 78
6 15 132 47 282 71 50 8 101 17 115 20 76 14 325 -5 645 -48z m640 -1 l80 -14
-75 5 c-77 5 -162 22 -110 22 14 0 61 -6 105 -13z m143 -22 c-10 -2 -28 -2
-40 0 -13 2 -5 4 17 4 22 1 32 -1 23 -4z m52 -13 c0 -5 -7 -7 -15 -4 -8 4 -15
8 -15 10 0 2 7 4 15 4 8 0 15 -4 15 -10z m88 -7 c-10 -2 -28 -2 -40 0 -13 2
-5 4 17 4 22 1 32 -1 23 -4z m122 -12 c42 -8 43 -9 10 -9 -19 -1 -53 3 -75 7
-35 8 -36 9 -10 9 17 0 50 -3 75 -7z m4723 -68 c-14 -38 -36 -96 -48 -131 -13
-35 -25 -65 -28 -68 -7 -7 -87 94 -87 110 0 13 75 87 130 129 56 43 63 35 33
-40z m-4508 38 c66 -10 108 -19 94 -20 -23 -1 -212 24 -249 33 -43 10 50 2
155 -13z m-3600 -232 c-7 -118 -17 -289 -21 -381 l-7 -168 -52 0 c-161 0 -327
113 -445 303 l-48 78 46 101 c46 99 48 102 100 126 29 13 56 21 59 18 7 -6
-16 -149 -26 -163 -3 -5 -30 -26 -58 -47 -29 -21 -53 -45 -53 -54 0 -44 101
-167 186 -228 83 -60 105 -66 160 -52 86 24 88 27 108 254 9 110 23 249 31
310 8 60 15 118 15 129 1 17 2 18 10 4 5 -9 3 -98 -5 -230z m9715 206 c0 -8
-2 -15 -4 -15 -2 0 -6 7 -10 15 -3 8 -1 15 4 15 6 0 10 -7 10 -15z m-5861 -11
c1 -1 -13 -6 -32 -9 -24 -5 -44 -2 -63 9 -29 16 -28 16 31 10 33 -4 62 -8 64
-10z m3650 -30 l104 -39 58 -85 c32 -47 59 -88 59 -91 0 -4 -42 -10 -92 -14
l-92 -7 -26 29 c-14 16 -46 52 -71 81 -40 46 -49 52 -73 46 -23 -5 -30 -17
-56 -103 -49 -158 -71 -364 -51 -480 20 -119 107 -271 157 -271 22 0 86 14
442 101 219 52 244 56 236 35 -4 -10 -57 -32 -153 -62 -140 -43 -589 -194
-622 -208 -12 -5 -22 13 -48 96 -46 150 -60 243 -61 413 0 213 31 371 106 534
39 85 25 83 183 25z m-3544 17 l40 -9 -45 0 c-25 0 -54 3 -65 8 -18 8 -18 9 5
9 14 0 43 -4 65 -8z m255 -35 c95 -13 145 -24 128 -28 -15 -3 -48 -1 -75 3
-26 5 -64 11 -83 14 -228 38 -207 46 30 11z m204 -42 c5 -12 2 -15 -10 -10 -8
3 -28 6 -42 7 l-27 1 25 8 c38 12 47 11 54 -6z m149 -11 c4 -2 7 -11 7 -19 0
-23 -57 -18 -65 5 -3 11 -14 22 -23 24 -9 2 3 2 28 -1 25 -2 48 -6 53 -9z
m-3508 -3 c129 -15 160 -21 144 -30 -15 -8 -239 14 -299 29 -34 9 -34 9 15 10
28 0 91 -4 140 -9z m3623 -10 c12 0 22 -4 22 -10 0 -6 -18 -7 -45 -3 -29 4
-50 1 -60 -7 -9 -8 -15 -9 -15 -2 0 17 33 33 55 27 11 -3 30 -5 43 -5z m3951
1 c12 -8 12 -12 2 -25 -9 -11 -12 -31 -8 -57 5 -36 4 -38 -8 -22 -25 33 -30
-12 -8 -72 11 -30 18 -56 16 -59 -3 -2 -27 5 -55 17 -67 27 -77 51 -46 107 49
90 66 112 53 70 -9 -29 -3 -25 15 9 8 15 8 21 1 17 -6 -4 -11 0 -11 8 0 18 27
21 49 7z m-3852 -23 c14 -22 54 -40 66 -30 17 13 66 21 69 11 2 -5 35 -12 73
-17 46 -5 69 -12 68 -20 -3 -13 29 -17 40 -5 9 9 71 8 85 -1 7 -4 54 -12 105
-17 50 -5 106 -12 122 -15 17 -3 42 -6 58 -5 15 0 27 -4 27 -9 0 -5 25 -9 55
-7 39 1 58 -2 64 -12 7 -11 23 -13 69 -8 33 4 97 2 143 -4 46 -5 104 -12 127
-14 24 -3 48 -8 54 -11 5 -3 46 -8 90 -10 45 -3 86 -8 92 -12 6 -3 40 -8 76
-10 35 -2 66 -5 68 -7 3 -2 1 -24 -2 -48 l-7 -45 -57 3 c-73 4 -113 14 -135
33 -9 8 -20 12 -24 9 -3 -4 -11 -3 -17 2 -14 12 -101 30 -196 41 -141 17 -170
22 -164 31 3 5 -15 6 -42 2 -31 -4 -45 -3 -41 4 4 7 -22 11 -75 12 -44 1 -89
6 -99 11 -10 6 -36 10 -58 10 -23 0 -41 3 -41 8 0 4 -34 8 -76 9 -45 1 -82 7
-91 15 -9 7 -37 13 -62 14 -25 0 -55 3 -66 6 -11 3 -54 9 -95 13 -41 4 -77 11
-80 15 -7 11 -87 16 -96 7 -11 -11 -26 -8 -19 3 4 6 -12 10 -42 10 -31 0 -43
3 -34 9 7 5 11 13 7 19 -3 6 4 13 16 15 13 2 26 5 30 6 4 0 11 -5 15 -11z
m-4517 -55 c0 -5 -7 -16 -14 -26 -10 -13 -15 -15 -19 -5 -6 19 3 38 19 38 8 0
14 -3 14 -7z m8430 -54 c0 -6 -4 -7 -10 -4 -5 3 -10 11 -10 16 0 6 5 7 10 4 6
-3 10 -11 10 -16z m-3033 -5 c-3 -3 -12 -4 -19 -1 -8 3 -5 6 6 6 11 1 17 -2
13 -5z m-4492 -24 l40 -7 -37 -8 c-21 -4 -38 -11 -38 -16 0 -4 -16 1 -35 12
-66 39 -56 42 70 19z m7482 -32 c-3 -8 -6 -5 -6 6 -1 11 2 17 5 13 3 -3 4 -12
1 -19z m23 -51 c0 -5 -4 -5 -10 -2 -5 3 -10 14 -10 23 0 15 2 15 10 2 5 -8 10
-19 10 -23z m-2206 -3 l64 -7 27 -53 c15 -29 24 -58 20 -63 -4 -7 1 -9 12 -5
15 5 16 4 3 -5 -8 -6 -33 -10 -55 -10 -34 1 -36 2 -15 9 35 10 12 17 -85 25
-44 3 -81 8 -83 10 -3 2 -1 26 3 52 4 26 10 42 12 35 3 -6 9 -9 14 -6 6 3 5
12 -3 22 -11 13 -10 15 5 9 9 -3 46 -9 81 -13z m-5229 -14 c13 -6 15 -9 5 -9
-8 0 -22 4 -30 9 -18 12 -2 12 25 0z m8643 -27 c-2 -21 2 -28 17 -31 11 -2 25
-8 30 -14 16 -16 -76 1 -104 19 l-25 16 23 18 c13 11 32 19 43 19 15 0 19 -6
16 -27z m-8535 0 c-7 -2 -21 -2 -30 0 -10 3 -4 5 12 5 17 0 24 -2 18 -5z m65
-10 c-10 -2 -26 -2 -35 0 -10 3 -2 5 17 5 19 0 27 -2 18 -5z m80 -10 c-10 -2
-26 -2 -35 0 -10 3 -2 5 17 5 19 0 27 -2 18 -5z m6646 -42 c-7 -9 -24 13 -24
32 0 21 1 21 13 -3 8 -14 12 -27 11 -29z m-6566 32 c-10 -2 -28 -2 -40 0 -13
2 -5 4 17 4 22 1 32 -1 23 -4z m80 -10 c-10 -2 -26 -2 -35 0 -10 3 -2 5 17 5
19 0 27 -2 18 -5z m90 -10 c-10 -2 -28 -2 -40 0 -13 2 -5 4 17 4 22 1 32 -1
23 -4z m6625 -13 c3 -11 1 -20 -4 -20 -5 0 -9 9 -9 20 0 11 2 20 4 20 2 0 6
-9 9 -20z m-6535 3 c-10 -2 -28 -2 -40 0 -13 2 -5 4 17 4 22 1 32 -1 23 -4z
m90 -10 c-10 -2 -28 -2 -40 0 -13 2 -5 4 17 4 22 1 32 -1 23 -4z m80 -10 c-10
-2 -26 -2 -35 0 -10 3 -2 5 17 5 19 0 27 -2 18 -5z m90 -10 c-10 -2 -26 -2
-35 0 -10 3 -2 5 17 5 19 0 27 -2 18 -5z m80 -10 c-10 -2 -26 -2 -35 0 -10 3
-2 5 17 5 19 0 27 -2 18 -5z m100 -10 c-10 -2 -26 -2 -35 0 -10 3 -2 5 17 5
19 0 27 -2 18 -5z m90 -10 c-10 -2 -26 -2 -35 0 -10 3 -2 5 17 5 19 0 27 -2
18 -5z m80 -10 c-10 -2 -26 -2 -35 0 -10 3 -2 5 17 5 19 0 27 -2 18 -5z m90
-10 c-10 -2 -28 -2 -40 0 -13 2 -5 4 17 4 22 1 32 -1 23 -4z m75 -10 c-7 -2
-21 -2 -30 0 -10 3 -4 5 12 5 17 0 24 -2 18 -5z m8914 1 c-3 -3 -12 -4 -19 -1
-8 3 -5 6 6 6 11 1 17 -2 13 -5z m-8809 -11 c-10 -2 -28 -2 -40 0 -13 2 -5 4
17 4 22 1 32 -1 23 -4z m65 -10 c-7 -2 -19 -2 -25 0 -7 3 -2 5 12 5 14 0 19
-2 13 -5z m105 -10 c-10 -2 -26 -2 -35 0 -10 3 -2 5 17 5 19 0 27 -2 18 -5z
m5273 -39 c13 -25 27 -48 31 -50 4 -3 19 13 33 36 25 39 55 58 36 23 -5 -10
-18 -45 -28 -77 -10 -33 -23 -61 -29 -63 -13 -4 -74 127 -74 157 0 30 6 25 31
-26z m427 -63 c233 -117 477 -231 493 -231 23 0 -34 -228 -86 -346 -55 -124
-139 -242 -239 -334 -65 -61 -117 -96 -204 -138 -62 -29 -75 -33 -86 -21 -7 8
-42 64 -79 125 l-67 111 0 110 c0 60 3 113 6 116 6 6 42 -21 125 -95 24 -21
28 -35 39 -136 12 -102 15 -115 37 -129 23 -15 27 -15 61 3 62 33 174 130 229
199 108 135 142 227 143 383 0 96 -11 109 -176 207 -238 141 -444 269 -444
278 0 18 43 0 248 -102z m-5610 92 c-10 -2 -28 -2 -40 0 -13 2 -5 4 17 4 22 1
32 -1 23 -4z m80 -10 c-10 -2 -28 -2 -40 0 -13 2 -5 4 17 4 22 1 32 -1 23 -4z
m100 -10 c-10 -2 -26 -2 -35 0 -10 3 -2 5 17 5 19 0 27 -2 18 -5z m90 -10
c-10 -2 -28 -2 -40 0 -13 2 -5 4 17 4 22 1 32 -1 23 -4z m85 -10 c-13 -2 -33
-2 -45 0 -13 2 -3 4 22 4 25 0 35 -2 23 -4z m9561 -2 c3 -4 -5 -6 -17 -4 -12
2 -99 -7 -192 -21 -316 -47 -846 -108 -785 -91 8 3 157 23 330 45 173 22 367
49 430 59 127 20 226 26 234 12z m-9471 -8 c-13 -2 -33 -2 -45 0 -13 2 -3 4
22 4 25 0 35 -2 23 -4z m85 -10 c-10 -2 -28 -2 -40 0 -13 2 -5 4 17 4 22 1 32
-1 23 -4z m90 -10 c-10 -2 -28 -2 -40 0 -13 2 -5 4 17 4 22 1 32 -1 23 -4z
m90 -10 c-10 -2 -28 -2 -40 0 -13 2 -5 4 17 4 22 1 32 -1 23 -4z m4172 -67 c0
-4 -7 -6 -15 -2 -8 3 -15 0 -15 -6 0 -6 -3 -8 -7 -4 -7 7 -8 10 -18 61 l-5 30
30 -35 c16 -19 30 -39 30 -44z m211 39 c5 3 6 -1 3 -9 -11 -27 -24 -17 -23 17
1 23 3 26 6 9 2 -12 9 -20 14 -17z m5500 8 c-12 -20 -14 -14 -5 12 4 9 9 14
11 11 3 -2 0 -13 -6 -23z m-9793 10 c-10 -2 -28 -2 -40 0 -13 2 -5 4 17 4 22
1 32 -1 23 -4z m90 -10 c-10 -2 -28 -2 -40 0 -13 2 -5 4 17 4 22 1 32 -1 23
-4z m90 -10 c-10 -2 -26 -2 -35 0 -10 3 -2 5 17 5 19 0 27 -2 18 -5z m8870 0
c-10 -2 -28 -2 -40 0 -13 2 -5 4 17 4 22 1 32 -1 23 -4z m-8770 -10 c-10 -2
-26 -2 -35 0 -10 3 -2 5 17 5 19 0 27 -2 18 -5z m80 -10 c-10 -2 -28 -2 -40 0
-13 2 -5 4 17 4 22 1 32 -1 23 -4z m2222 -8 c14 -8 21 -14 15 -14 -5 0 -21 6
-35 14 -14 8 -20 14 -15 14 6 0 21 -6 35 -14z m6337 9 c-3 -3 -12 -4 -19 -1
-8 3 -5 6 6 6 11 1 17 -2 13 -5z m-8459 -11 c-10 -2 -26 -2 -35 0 -10 3 -2 5
17 5 19 0 27 -2 18 -5z m8379 1 c-3 -3 -12 -4 -19 -1 -8 3 -5 6 6 6 11 1 17
-2 13 -5z m-8294 -11 c-7 -2 -21 -2 -30 0 -10 3 -4 5 12 5 17 0 24 -2 18 -5z
m90 -10 c-7 -2 -21 -2 -30 0 -10 3 -4 5 12 5 17 0 24 -2 18 -5z m80 -10 c-7
-2 -21 -2 -30 0 -10 3 -4 5 12 5 17 0 24 -2 18 -5z m7315 0 c-16 -2 -40 -2
-55 0 -16 2 -3 4 27 4 30 0 43 -2 28 -4z m-7225 -10 c-7 -2 -21 -2 -30 0 -10
3 -4 5 12 5 17 0 24 -2 18 -5z m7010 0 c-24 -2 -62 -2 -85 0 -24 2 -5 4 42 4
47 0 66 -2 43 -4z m-6910 -10 c-7 -2 -21 -2 -30 0 -10 3 -4 5 12 5 17 0 24 -2
18 -5z m6660 0 c-29 -2 -77 -2 -105 0 -29 2 -6 3 52 3 58 0 81 -1 53 -3z
m-6575 -10 c-10 -2 -26 -2 -35 0 -10 3 -2 5 17 5 19 0 27 -2 18 -5z m6255 0
c-46 -2 -120 -2 -165 0 -46 1 -9 3 82 3 91 0 128 -2 83 -3z m-6160 -10 c-7 -2
-21 -2 -30 0 -10 3 -4 5 12 5 17 0 24 -2 18 -5z m80 -10 c-7 -2 -19 -2 -25 0
-7 3 -2 5 12 5 14 0 19 -2 13 -5z m110 -10 c-7 -2 -21 -2 -30 0 -10 3 -4 5 12
5 17 0 24 -2 18 -5z m3260 -8 c4 -8 0 -121 -8 -252 -8 -131 -15 -348 -15 -482
l0 -244 -117 5 c-95 5 -135 12 -204 35 -195 67 -372 202 -502 384 -26 37 -47
72 -47 78 0 6 30 63 67 127 58 103 71 119 107 135 47 20 135 44 141 37 4 -4
-14 -93 -36 -174 -10 -38 -16 -44 -81 -75 -86 -41 -98 -52 -98 -90 0 -22 16
-46 73 -105 92 -97 180 -165 284 -216 90 -45 125 -49 221 -29 83 18 109 43
116 112 3 30 17 169 31 309 44 456 50 494 68 445z m4832 5 c3 -5 1 -10 -4 -10
-6 0 -11 5 -11 10 0 6 2 10 4 10 3 0 8 -4 11 -10z m-8002 -7 c-7 -2 -21 -2
-30 0 -10 3 -4 5 12 5 17 0 24 -2 18 -5z m95 -10 c-10 -2 -26 -2 -35 0 -10 3
-2 5 17 5 19 0 27 -2 18 -5z m100 -10 c-10 -2 -28 -2 -40 0 -13 2 -5 4 17 4
22 1 32 -1 23 -4z m1147 -12 l40 -9 -55 -2 c-51 -2 -53 -3 -20 -10 23 -5 -5
-8 -84 -9 -66 0 -117 1 -114 5 3 3 28 14 54 25 50 20 94 20 179 0z m-1067 2
c-10 -2 -28 -2 -40 0 -13 2 -5 4 17 4 22 1 32 -1 23 -4z m2834 -18 c3 -14 1
-25 -3 -25 -5 0 -9 11 -9 25 0 14 2 25 4 25 2 0 6 -11 8 -25z m1758 -12 c9 -8
10 -13 3 -13 -15 0 -43 28 -43 43 1 8 5 6 13 -3 7 -8 19 -21 27 -27z m-4507
20 c-7 -2 -21 -2 -30 0 -10 3 -4 5 12 5 17 0 24 -2 18 -5z m95 -10 c-10 -2
-26 -2 -35 0 -10 3 -2 5 17 5 19 0 27 -2 18 -5z m90 -10 c-10 -2 -28 -2 -40 0
-13 2 -5 4 17 4 22 1 32 -1 23 -4z m90 -10 c-10 -2 -26 -2 -35 0 -10 3 -2 5
17 5 19 0 27 -2 18 -5z m4794 -25 c-10 -10 -15 -10 -22 2 -6 9 -5 17 3 22 18
11 33 -10 19 -24z m-4699 15 c-7 -2 -21 -2 -30 0 -10 3 -4 5 12 5 17 0 24 -2
18 -5z m135 -10 c-10 -2 -28 -2 -40 0 -13 2 -5 4 17 4 22 1 32 -1 23 -4z
m2753 -13 c5 0 9 -10 10 -22 1 -22 1 -22 9 2 7 21 8 18 9 -19 1 -37 -5 -53
-40 -97 -23 -30 -46 -51 -52 -47 -5 3 -7 2 -4 -4 6 -9 -45 -73 -57 -73 -3 0
-6 39 -6 86 l0 86 40 39 c22 21 45 37 52 35 7 -1 10 -1 6 1 -15 9 -8 25 8 19
9 -3 20 -6 25 -6z m1829 -65 c11 -13 7 -15 -26 -15 -39 1 -39 1 -14 15 14 8
26 14 26 15 1 0 7 -7 14 -15z m-194 -27 l29 -33 -32 29 c-31 28 -38 36 -30 36
2 0 16 -15 33 -32z m-2289 -174 c-3 -16 0 -24 10 -24 8 0 11 -5 7 -12 -5 -8
-13 -4 -27 13 -10 13 -23 24 -28 24 -5 0 -8 5 -6 10 1 6 8 9 15 9 6 -1 12 2
12 8 0 5 5 6 11 2 6 -3 9 -17 6 -30z m89 -10 c-3 -9 -6 -32 -6 -52 -1 -25 -3
-32 -9 -22 -11 19 -2 90 11 90 6 0 7 -7 4 -16z"/>
<path d="M5648 6125 c-21 -20 -38 -38 -38 -42 0 -4 18 10 39 31 36 35 44 38
77 33 22 -4 50 -19 68 -36 30 -29 36 -30 198 -45 92 -9 175 -19 185 -23 14 -4
15 -3 7 6 -9 10 -255 40 -331 41 -11 0 -40 16 -63 35 -56 46 -92 46 -142 0z"/>
<path d="M8410 6119 c0 -5 5 -7 10 -4 6 3 10 8 10 11 0 2 -4 4 -10 4 -5 0 -10
-5 -10 -11z"/>
<path d="M5643 5992 c-6 -4 26 -7 70 -7 88 1 208 -10 167 -15 -20 -2 -16 -4
15 -11 22 -4 51 -8 65 -7 23 0 22 1 -5 8 -27 7 -25 8 20 10 38 2 22 6 -65 15
-130 15 -249 18 -267 7z"/>
<path d="M5728 5973 c6 -2 18 -2 25 0 6 3 1 5 -13 5 -14 0 -19 -2 -12 -5z"/>
<path d="M6207 5973 c-15 -14 -6 -33 16 -33 20 1 20 2 4 11 -9 6 -15 14 -12
20 7 10 2 12 -8 2z"/>
<path d="M6058 5963 c12 -2 32 -2 45 0 12 2 2 4 -23 4 -25 0 -35 -2 -22 -4z"/>
<path d="M6078 5943 c12 -2 32 -2 45 0 12 2 2 4 -23 4 -25 0 -35 -2 -22 -4z"/>
<path d="M6330 5931 l-35 -7 32 -8 c35 -8 73 -1 73 15 0 10 -17 10 -70 0z"/>
<path d="M6420 5909 c-22 -7 -20 -8 10 -5 19 2 45 0 57 -5 28 -11 62 -1 41 12
-16 11 -75 10 -108 -2z"/>
<path d="M6595 5903 c22 -3 47 -10 55 -18 9 -7 53 -15 105 -18 119 -8 157 -13
197 -26 18 -6 89 -18 158 -25 69 -8 143 -19 165 -25 22 -6 66 -11 97 -11 31 0
59 -4 62 -9 5 -7 63 -17 161 -27 80 -8 188 -24 222 -33 21 -5 63 -12 93 -14
30 -3 75 -12 100 -21 25 -10 50 -18 55 -19 6 -1 27 -13 47 -25 41 -25 68 -20
68 12 0 17 -13 28 -50 47 -27 13 -50 27 -50 32 0 4 -9 7 -20 7 -11 0 -20 4
-20 9 0 5 -44 11 -97 14 -163 8 -253 23 -273 47 -16 18 -34 22 -80 19 -38 -2
-125 12 -131 23 -5 8 -49 9 -153 6 -114 -5 -146 -3 -146 7 0 15 -52 24 -180
32 -52 3 -96 9 -98 14 -2 5 -76 8 -165 7 -89 -1 -144 -3 -122 -5z"/>
<path d="M8480 5666 c0 -9 -5 -16 -12 -16 -6 0 -9 -2 -7 -5 3 -2 23 2 44 10
22 8 32 14 23 15 -9 0 -23 3 -32 6 -11 4 -16 1 -16 -10z"/>
<path d="M8560 5670 c0 -5 5 -10 10 -10 6 0 10 5 10 10 0 6 -4 10 -10 10 -5 0
-10 -4 -10 -10z"/>
<path d="M8210 5599 c0 -13 47 -15 80 -3 35 12 34 12 -22 11 -32 -1 -58 -4
-58 -8z"/>
<path d="M1560 5606 c0 -2 7 -7 16 -10 8 -3 12 -2 9 4 -6 10 -25 14 -25 6z"/>
<path d="M5400 4670 c0 -5 9 -10 20 -10 11 0 20 5 20 10 0 6 -9 10 -20 10 -11
0 -20 -4 -20 -10z"/>
<path d="M14233 4073 c9 -2 25 -2 35 0 9 3 1 5 -18 5 -19 0 -27 -2 -17 -5z"/>
<path d="M13495 4030 c3 -5 11 -10 16 -10 6 0 7 5 4 10 -3 6 -11 10 -16 10 -6
0 -7 -4 -4 -10z"/>
<path d="M12891 3894 c0 -11 3 -14 6 -6 3 7 2 16 -1 19 -3 4 -6 -2 -5 -13z"/>
<path d="M13766 3681 c-23 -25 -20 -48 9 -67 31 -20 41 -13 43 30 2 45 -27 65
-52 37z"/>
<path d="M13343 3293 c9 -2 23 -2 30 0 6 3 -1 5 -18 5 -16 0 -22 -2 -12 -5z"/>
<path d="M10835 3660 c3 -5 8 -10 11 -10 2 0 4 5 4 10 0 6 -5 10 -11 10 -5 0
-7 -4 -4 -10z"/>
<path d="M8073 3558 c8 -4 27 -3 43 1 26 8 25 9 -13 8 -25 -1 -37 -4 -30 -9z"/>
<path d="M9804 8076 c11 -9 29 -16 40 -15 17 1 16 2 -6 9 -14 4 -32 11 -40 15
-7 3 -4 -1 6 -9z"/>
<path d="M9958 8043 c7 -3 16 -2 19 1 4 3 -2 6 -13 5 -11 0 -14 -3 -6 -6z"/>
<path d="M10070 8010 c0 -5 4 -10 9 -10 6 0 13 5 16 10 3 6 -1 10 -9 10 -9 0
-16 -4 -16 -10z"/>
<path d="M10120 8011 c0 -5 7 -11 15 -15 8 -3 15 -1 15 3 0 5 -7 11 -15 15 -8
3 -15 1 -15 -3z"/>
<path d="M10396 7995 c-5 -13 -10 -14 -26 -5 -12 6 -26 10 -32 8 -6 -2 3 -10
20 -17 20 -9 32 -20 32 -33 0 -15 -4 -17 -18 -9 -18 10 -310 36 -317 29 -2 -2
60 -30 138 -62 205 -85 427 -195 665 -333 224 -129 566 -357 822 -548 111 -83
372 -285 380 -294 3 -4 37 -31 75 -62 l70 -56 74 6 74 6 -49 40 c-27 21 -51
42 -54 45 -3 3 -42 35 -88 71 -45 35 -115 90 -155 122 -188 150 -581 436 -709
515 -113 70 -283 182 -277 182 4 0 55 -30 115 -66 382 -231 929 -612 1231
-856 50 -41 80 -58 100 -58 l28 1 -30 25 c-47 39 -298 228 -311 234 -6 3 -55
38 -110 78 -126 94 -371 266 -487 343 -125 84 -152 103 -155 112 -2 4 -8 7
-13 7 -12 0 -206 125 -274 176 -19 14 -19 15 4 3 13 -6 56 -32 95 -57 39 -25
107 -68 151 -96 176 -113 511 -341 630 -429 163 -122 332 -250 387 -294 49
-40 74 -54 93 -51 23 3 21 6 -32 48 -145 111 -268 201 -523 382 -345 244 -437
303 -780 511 -113 68 -234 140 -270 159 -105 57 -456 238 -462 238 -3 0 -9 -7
-12 -15z m534 -341 c0 -2 -13 2 -30 11 -16 9 -30 18 -30 21 0 2 14 -2 30 -11
17 -9 30 -18 30 -21z m75 8 c-3 -3 -11 0 -18 7 -9 10 -8 11 6 5 10 -3 15 -9
12 -12z m36 -19 c13 -16 12 -17 -3 -4 -17 13 -22 21 -14 21 2 0 10 -8 17 -17z
m-41 -29 c0 -2 -13 2 -30 11 -16 9 -30 18 -30 21 0 2 14 -2 30 -11 17 -9 30
-18 30 -21z"/>
<path d="M10178 7983 c12 -2 32 -2 45 0 12 2 2 4 -23 4 -25 0 -35 -2 -22 -4z"/>
<path d="M1618 7783 c-10 -2 -18 -9 -18 -14 0 -14 16 -11 30 6 7 8 11 14 9 14
-2 -1 -12 -3 -21 -6z"/>
<path d="M8060 7716 c0 -2 8 -10 18 -17 15 -13 16 -12 3 4 -13 16 -21 21 -21
13z"/>
<path d="M9310 7188 c0 -9 5 -20 10 -23 13 -8 13 5 0 25 -8 13 -10 13 -10 -2z"/>
<path d="M2921 6974 c0 -11 3 -14 6 -6 3 7 2 16 -1 19 -3 4 -6 -2 -5 -13z"/>
<path d="M2911 6934 c0 -11 3 -14 6 -6 3 7 2 16 -1 19 -3 4 -6 -2 -5 -13z"/>
<path d="M2895 6880 c-4 -17 -5 -34 -2 -36 2 -3 7 10 11 27 8 42 0 50 -9 9z"/>
<path d="M2867 6792 c-9 -21 -34 -58 -54 -82 l-38 -45 37 30 c33 26 87 120 76
131 -3 2 -12 -13 -21 -34z"/>
<path d="M966 6574 c-9 -24 -7 -28 9 -14 17 14 20 30 6 30 -5 0 -12 -7 -15
-16z"/>
<path d="M11715 6585 c-5 -2 -46 -7 -89 -10 -56 -5 -75 -10 -64 -16 15 -8 236
16 247 27 5 5 -79 4 -94 -1z"/>
<path d="M11438 6543 c12 -2 32 -2 45 0 12 2 2 4 -23 4 -25 0 -35 -2 -22 -4z"/>
<path d="M959 6528 c-8 -112 -8 -109 22 -120 40 -14 36 -26 -8 -30 -35 -3 -38
-6 -50 -48 -7 -24 -10 -47 -5 -51 4 -4 86 -10 183 -14 158 -7 176 -6 176 9 0
9 -4 16 -9 16 -4 0 -8 11 -8 24 0 14 -5 28 -11 31 -5 4 -8 21 -5 38 4 20 3 25
-2 14 -6 -14 -12 -5 -26 38 -11 30 -25 60 -32 66 -38 31 -223 53 -225 27z
m222 -45 c13 -16 12 -17 -3 -4 -17 13 -22 21 -14 21 2 0 10 -8 17 -17z"/>
<path d="M11328 6533 c6 -2 18 -2 25 0 6 3 1 5 -13 5 -14 0 -19 -2 -12 -5z"/>
<path d="M3440 6465 c0 -14 2 -25 4 -25 2 0 19 -6 37 -14 29 -12 37 -12 52 -1
18 13 18 15 2 39 -14 21 -25 26 -56 26 -35 0 -39 -3 -39 -25z"/>
<path d="M10818 6473 c7 -3 16 -2 19 1 4 3 -2 6 -13 5 -11 0 -14 -3 -6 -6z"/>
<path d="M10318 6463 c7 -3 16 -2 19 1 4 3 -2 6 -13 5 -11 0 -14 -3 -6 -6z"/>
<path d="M10390 6460 c0 -5 7 -10 15 -10 8 0 15 5 15 10 0 6 -7 10 -15 10 -8
0 -15 -4 -15 -10z"/>
<path d="M11008 6453 c12 -2 30 -2 40 0 9 3 -1 5 -23 4 -22 0 -30 -2 -17 -4z"/>
<path d="M10568 6443 c7 -3 16 -2 19 1 4 3 -2 6 -13 5 -11 0 -14 -3 -6 -6z"/>
<path d="M10868 6443 c6 -2 18 -2 25 0 6 3 1 5 -13 5 -14 0 -19 -2 -12 -5z"/>
<path d="M11128 6443 c6 -2 18 -2 25 0 6 3 1 5 -13 5 -14 0 -19 -2 -12 -5z"/>
<path d="M9788 6423 c7 -3 16 -2 19 1 4 3 -2 6 -13 5 -11 0 -14 -3 -6 -6z"/>
<path d="M9908 6413 c6 -2 18 -2 25 0 6 3 1 5 -13 5 -14 0 -19 -2 -12 -5z"/>
<path d="M10003 6403 c9 -2 25 -2 35 0 9 3 1 5 -18 5 -19 0 -27 -2 -17 -5z"/>
<path d="M11438 6403 c6 -2 18 -2 25 0 6 3 1 5 -13 5 -14 0 -19 -2 -12 -5z"/>
<path d="M11225 6390 c-8 -13 5 -13 25 0 13 8 13 10 -2 10 -9 0 -20 -4 -23
-10z"/>
<path d="M11498 6393 c7 -3 16 -2 19 1 4 3 -2 6 -13 5 -11 0 -14 -3 -6 -6z"/>
<path d="M14009 6385 c18 -8 41 -15 50 -14 9 0 0 7 -19 14 -47 18 -74 18 -31
0z"/>
<path d="M10228 6383 c12 -2 30 -2 40 0 9 3 -1 5 -23 4 -22 0 -30 -2 -17 -4z"/>
<path d="M12463 6383 c15 -2 39 -2 55 0 15 2 2 4 -28 4 -30 0 -43 -2 -27 -4z"/>
<path d="M10318 6373 c12 -2 32 -2 45 0 12 2 2 4 -23 4 -25 0 -35 -2 -22 -4z"/>
<path d="M11670 6370 c-18 -12 -2 -12 25 0 13 6 15 9 5 9 -8 0 -22 -4 -30 -9z"/>
<path d="M12698 6373 c23 -2 61 -2 85 0 23 2 4 4 -43 4 -47 0 -66 -2 -42 -4z"/>
<path d="M12868 6373 c23 -2 59 -2 80 0 20 2 1 4 -43 4 -44 0 -61 -2 -37 -4z"/>
<path d="M13123 6373 c79 -2 126 -7 122 -13 -4 -6 15 -9 47 -9 29 1 42 4 29 6
-19 4 -21 7 -10 14 8 5 -51 8 -151 7 -160 -2 -161 -2 -37 -5z"/>
<path d="M2940 6366 c0 -2 15 -6 34 -8 19 -2 32 0 30 4 -5 8 -64 12 -64 4z"/>
<path d="M10433 6363 c9 -2 25 -2 35 0 9 3 1 5 -18 5 -19 0 -27 -2 -17 -5z"/>
<path d="M13428 6363 c18 -2 45 -2 60 0 15 2 0 4 -33 4 -33 0 -45 -2 -27 -4z"/>
<path d="M10539 6350 c30 -4 91 -11 135 -13 67 -5 72 -4 27 3 -30 4 -91 11
-135 13 -67 5 -72 4 -27 -3z"/>
<path d="M13613 6353 c9 -2 23 -2 30 0 6 3 -1 5 -18 5 -16 0 -22 -2 -12 -5z"/>
<path d="M11718 6333 c7 -3 16 -2 19 1 4 3 -2 6 -13 5 -11 0 -14 -3 -6 -6z"/>
<path d="M11988 6323 c7 -3 16 -2 19 1 4 3 -2 6 -13 5 -11 0 -14 -3 -6 -6z"/>
<path d="M12863 6323 c9 -2 25 -2 35 0 9 3 1 5 -18 5 -19 0 -27 -2 -17 -5z"/>
<path d="M13248 6323 c7 -3 16 -2 19 1 4 3 -2 6 -13 5 -11 0 -14 -3 -6 -6z"/>
<path d="M13047 6313 c18 -2 50 -2 70 0 21 2 7 4 -32 4 -38 0 -55 -2 -38 -4z"/>
<path d="M13168 6313 c6 -2 18 -2 25 0 6 3 1 5 -13 5 -14 0 -19 -2 -12 -5z"/>
<path d="M3061 6306 c2 -2 65 -9 139 -15 74 -7 149 -14 165 -16 20 -3 25 -2
15 4 -22 12 -331 39 -319 27z"/>
<path d="M12115 6300 c-3 -5 -1 -10 4 -10 6 0 11 5 11 10 0 6 -2 10 -4 10 -3
0 -8 -4 -11 -10z"/>
<path d="M12543 6303 c9 -2 23 -2 30 0 6 3 -1 5 -18 5 -16 0 -22 -2 -12 -5z"/>
<path d="M13612 6304 c10 -10 84 -13 99 -3 9 6 -6 9 -45 9 -33 0 -57 -3 -54
-6z"/>
<path d="M12605 6293 c11 -2 76 -18 145 -35 69 -16 141 -33 160 -38 19 -4 91
-24 160 -44 346 -101 599 -205 945 -391 98 -53 225 -99 238 -86 20 20 -219
175 -413 269 -186 90 -377 158 -610 216 -173 43 -579 117 -624 115 -21 -1 -21
-1 -1 -6z"/>
<path d="M13368 6293 c6 -2 18 -2 25 0 6 3 1 5 -13 5 -14 0 -19 -2 -12 -5z"/>
<path d="M13453 6293 c9 -2 25 -2 35 0 9 3 1 5 -18 5 -19 0 -27 -2 -17 -5z"/>
<path d="M2551 6254 c0 -11 3 -14 6 -6 3 7 2 16 -1 19 -3 4 -6 -2 -5 -13z"/>
<path d="M12298 6263 c6 -2 18 -2 25 0 6 3 1 5 -13 5 -14 0 -19 -2 -12 -5z"/>
<path d="M1274 6220 c3 -15 12 -43 20 -61 l15 -34 -6 33 c-4 24 -2 32 10 32 8
0 17 8 19 18 4 14 -3 21 -29 29 -35 11 -35 10 -29 -17z"/>
<path d="M9838 6243 c7 -3 16 -2 19 1 4 3 -2 6 -13 5 -11 0 -14 -3 -6 -6z"/>
<path d="M14180 6240 c0 -6 7 -10 15 -10 8 0 15 2 15 4 0 2 -7 6 -15 10 -8 3
-15 1 -15 -4z"/>
<path d="M9978 6233 c7 -3 16 -2 19 1 4 3 -2 6 -13 5 -11 0 -14 -3 -6 -6z"/>
<path d="M14975 6227 c17 -8 32 -13 34 -11 7 7 -3 12 -34 19 l-30 6 30 -14z"/>
<path d="M10078 6223 c7 -3 16 -2 19 1 4 3 -2 6 -13 5 -11 0 -14 -3 -6 -6z"/>
<path d="M14358 6223 c7 -3 16 -2 19 1 4 3 -2 6 -13 5 -11 0 -14 -3 -6 -6z"/>
<path d="M3017 6213 c18 -2 50 -2 70 0 21 2 7 4 -32 4 -38 0 -55 -2 -38 -4z"/>
<path d="M10218 6213 c7 -3 16 -2 19 1 4 3 -2 6 -13 5 -11 0 -14 -3 -6 -6z"/>
<path d="M14453 6213 c9 -2 23 -2 30 0 6 3 -1 5 -18 5 -16 0 -22 -2 -12 -5z"/>
<path d="M3173 6203 c15 -2 37 -2 50 0 12 2 0 4 -28 4 -27 0 -38 -2 -22 -4z"/>
<path d="M15035 6200 c3 -5 15 -10 26 -10 10 0 19 5 19 10 0 6 -12 10 -26 10
-14 0 -23 -4 -19 -10z"/>
<path d="M14688 6193 c6 -2 18 -2 25 0 6 3 1 5 -13 5 -14 0 -19 -2 -12 -5z"/>
<path d="M14890 6196 c0 -2 9 -6 20 -9 11 -3 18 -1 14 4 -5 9 -34 13 -34 5z"/>
<path d="M1371 6174 c0 -11 3 -14 6 -6 3 7 2 16 -1 19 -3 4 -6 -2 -5 -13z"/>
<path d="M15580 6180 c0 -5 5 -10 10 -10 6 0 10 5 10 10 0 6 -4 10 -10 10 -5
0 -10 -4 -10 -10z"/>
<path d="M3193 6173 c9 -2 25 -2 35 0 9 3 1 5 -18 5 -19 0 -27 -2 -17 -5z"/>
<path d="M15345 6170 c-13 -6 -15 -9 -5 -9 8 0 22 4 30 9 18 12 2 12 -25 0z"/>
<path d="M15396 6162 c6 -4 14 -14 17 -22 4 -12 6 -12 6 2 1 11 8 15 24 12 20
-4 21 -4 2 5 -24 11 -65 14 -49 3z"/>
<path d="M1403 6138 c14 -22 23 -23 30 -4 4 9 -3 16 -18 18 -20 4 -22 3 -12
-14z"/>
<path d="M15702 6144 c10 -10 20 -16 22 -13 3 3 -5 11 -17 18 -21 13 -21 12
-5 -5z"/>
<path d="M15578 6123 c6 -2 18 -2 25 0 6 3 1 5 -13 5 -14 0 -19 -2 -12 -5z"/>
<path d="M1478 6083 c7 -3 16 -2 19 1 4 3 -2 6 -13 5 -11 0 -14 -3 -6 -6z"/>
<path d="M1521 6074 c-7 -8 -11 -16 -10 -18 16 -11 102 -37 112 -33 6 2 0 8
-15 12 -21 5 -28 13 -28 31 0 18 -5 24 -22 24 -13 -1 -29 -8 -37 -16z"/>
<path d="M4713 6063 c15 -2 37 -2 50 0 12 2 0 4 -28 4 -27 0 -38 -2 -22 -4z"/>
<path d="M3978 6033 c7 -3 16 -2 19 1 4 3 -2 6 -13 5 -11 0 -14 -3 -6 -6z"/>
<path d="M9358 5393 c7 -3 16 -2 19 1 4 3 -2 6 -13 5 -11 0 -14 -3 -6 -6z"/>
<path d="M12878 5388 c-2 -6 -20 -11 -39 -10 -32 1 -33 0 -15 -14 31 -22 67
-12 72 20 3 18 -12 22 -18 4z"/>
<path d="M13696 5281 c-21 -24 -66 -33 -85 -18 -12 10 -9 13 15 18 16 3 -37 5
-118 5 -145 -1 -177 -8 -95 -21 23 -4 87 -16 141 -26 54 -11 101 -17 104 -14
3 3 1 5 -4 6 -5 0 8 6 30 12 25 8 42 20 47 35 11 28 -10 30 -35 3z"/>
<path d="M16153 5115 c-34 -15 -43 -25 -19 -21 13 2 66 35 56 35 -3 0 -20 -6
-37 -14z"/>
<path d="M16085 5080 c-3 -5 1 -10 9 -10 9 0 16 5 16 10 0 6 -4 10 -9 10 -6 0
-13 -4 -16 -10z"/>
<path d="M16043 5062 c-13 -2 -23 -8 -23 -13 0 -8 47 -3 58 6 8 6 -15 11 -35
7z"/>
<path d="M15944 5024 c-18 -14 -18 -15 6 -8 31 8 50 24 29 24 -8 0 -24 -7 -35
-16z"/>
<path d="M15890 5010 c-13 -8 -12 -10 3 -10 9 0 17 5 17 10 0 12 -1 12 -20 0z"/>
<path d="M16217 4648 c-25 -93 -37 -183 -30 -223 4 -25 2 -35 -8 -35 -9 0 -9
-3 2 -12 9 -7 21 -32 28 -55 18 -65 31 -62 32 9 2 92 -2 373 -5 376 -2 1 -10
-26 -19 -60z"/>
<path d="M12218 4613 c7 -3 16 -2 19 1 4 3 -2 6 -13 5 -11 0 -14 -3 -6 -6z"/>
<path d="M12210 4535 c0 -8 7 -15 15 -15 8 0 15 7 15 15 0 8 -7 15 -15 15 -8
0 -15 -7 -15 -15z"/>
<path d="M15687 4098 c-10 -8 -18 -29 -20 -53 -2 -32 1 -40 15 -40 10 0 18 -4
18 -8 0 -4 0 -11 0 -17 0 -5 -9 -10 -19 -10 -11 0 -23 -4 -26 -10 -10 -17 31
-11 55 8 16 13 23 32 27 80 5 57 4 62 -14 62 -10 0 -27 -6 -36 -12z m33 -20
c0 -25 -12 -58 -21 -58 -10 0 -12 53 -2 63 10 11 23 8 23 -5z"/>
<path d="M15626 4091 c-16 -3 -37 -17 -48 -31 -21 -28 -37 -130 -20 -130 12 0
22 24 22 51 0 14 7 19 25 19 14 0 25 5 25 10 0 6 -9 10 -20 10 -11 0 -20 6
-20 13 0 19 33 47 53 47 9 0 17 5 17 10 0 6 -1 9 -2 9 -2 -1 -16 -4 -32 -8z"/>
<path d="M15530 4026 c-24 -61 -40 -60 -40 1 0 28 -15 52 -25 41 -2 -2 -1 -36
2 -76 5 -59 9 -72 22 -70 16 3 75 131 68 151 -2 6 -14 -15 -27 -47z"/>
<path d="M16451 3291 c-10 -6 -10 -10 -1 -16 13 -8 24 -1 19 14 -3 6 -10 7
-18 2z"/>
<path d="M14968 2933 c6 -2 18 -2 25 0 6 3 1 5 -13 5 -14 0 -19 -2 -12 -5z"/>
<path d="M14798 2903 c7 -3 16 -2 19 1 4 3 -2 6 -13 5 -11 0 -14 -3 -6 -6z"/>
<path d="M14678 2883 c7 -3 16 -2 19 1 4 3 -2 6 -13 5 -11 0 -14 -3 -6 -6z"/>
<path d="M14608 2873 c6 -2 18 -2 25 0 6 3 1 5 -13 5 -14 0 -19 -2 -12 -5z"/>
<path d="M14548 2863 c6 -2 18 -2 25 0 6 3 1 5 -13 5 -14 0 -19 -2 -12 -5z"/>
<path d="M14278 2833 c12 -2 32 -2 45 0 12 2 2 4 -23 4 -25 0 -35 -2 -22 -4z"/>
<path d="M14248 2793 c6 -2 18 -2 25 0 6 3 1 5 -13 5 -14 0 -19 -2 -12 -5z"/>
<path d="M13850 2781 l25 -8 -25 -5 c-15 -3 -4 -6 25 -6 35 0 44 2 30 7 -11 5
19 6 68 3 61 -3 87 -1 87 7 0 8 -36 11 -117 10 -70 -1 -108 -4 -93 -8z"/>
</g>
</svg>
