<?xml version="1.0" standalone="no"?>
<!DOCTYPE svg PUBLIC "-//W3C//DTD SVG 20010904//EN"
 "http://www.w3.org/TR/2001/REC-SVG-20010904/DTD/svg10.dtd">
<svg version="1.0" xmlns="http://www.w3.org/2000/svg"
 width="256.000000pt" height="256.000000pt" viewBox="0 0 256.000000 256.000000"
 preserveAspectRatio="xMidYMid meet">

<g transform="translate(0.000000,256.000000) scale(0.100000,-0.100000)"
fill="#fff" stroke="none">
<path d="M538 2465 c-103 -26 -196 -81 -279 -164 -111 -111 -166 -230 -176
-381 -10 -168 45 -322 162 -447 l65 -71 -16 -32 c-32 -62 10 -150 77 -165 l29
-7 -48 -37 c-26 -21 -53 -45 -60 -53 -12 -14 -16 -15 -43 -1 -43 21 -96 11
-134 -27 -25 -26 -30 -38 -30 -80 0 -40 5 -54 29 -79 17 -17 35 -31 41 -31 8
0 10 -56 7 -190 -3 -142 -1 -194 8 -205 9 -11 34 -15 100 -15 l87 0 6 -64 c11
-117 67 -202 169 -257 58 -31 70 -34 148 -34 78 0 90 3 148 34 101 55 158 142
169 257 l6 64 218 0 219 0 0 40 0 40 -120 0 -120 0 0 166 0 166 -34 34 -34 34
-186 0 c-179 0 -186 -1 -186 -20 0 -17 -7 -20 -40 -20 -33 0 -40 3 -40 20 0
18 -7 20 -73 20 -62 0 -83 -5 -136 -31 -106 -53 -150 -134 -151 -276 l0 -93
-40 0 -40 0 0 98 c0 142 14 216 54 298 62 125 187 214 328 234 35 5 197 10
361 10 l297 0 0 -246 0 -246 35 -35 34 -34 183 3 c204 3 216 7 276 85 l27 36
3 399 3 398 43 0 43 0 18 -146 19 -146 35 7 c20 4 39 8 42 10 3 3 -2 64 -12
137 -26 191 -29 178 32 178 43 0 55 4 78 28 20 22 31 27 46 21 31 -12 110 -10
123 3 17 17 17 279 0 296 -13 13 -92 15 -123 3 -15 -6 -26 -1 -47 21 l-27 29
-204 -3 -204 -3 -35 -27 c-20 -15 -42 -41 -50 -58 -13 -30 -13 -30 -96 -30
-93 0 -131 -14 -150 -55 -16 -34 -15 -60 2 -94 21 -39 56 -51 155 -51 88 0 89
0 123 -34 21 -21 49 -37 72 -41 l37 -7 -3 -404 -3 -404 -33 -32 -32 -33 -151
-3 c-106 -3 -154 0 -165 8 -11 10 -14 54 -14 239 0 219 1 227 21 239 19 12 21
21 17 88 -3 68 -6 77 -36 107 l-32 32 -120 3 -120 4 45 51 c87 98 145 254 145
387 0 257 -179 497 -429 577 -68 21 -243 26 -313 8z m245 -80 c208 -44 361
-199 404 -412 38 -186 -40 -385 -199 -505 -181 -137 -420 -139 -610 -6 -257
180 -287 558 -63 783 125 125 298 176 468 140z m1297 -585 l0 -120 -109 0
-109 0 29 29 c23 23 29 38 29 71 0 33 -6 48 -29 71 -28 27 -34 29 -111 29 -55
0 -79 3 -75 11 14 22 55 28 213 28 l162 1 0 -120z m158 -40 c-3 -39 -4 -39
-28 -27 -14 7 -31 25 -38 40 -16 34 0 75 38 94 24 12 25 12 28 -27 2 -22 2
-58 0 -80z m-1118 -1160 l0 -40 -360 0 -360 0 0 40 0 40 360 0 360 0 0 -40z"/>
<path d="M563 2266 c-104 -34 -204 -123 -251 -224 -24 -50 -27 -69 -27 -162 0
-99 2 -110 32 -171 40 -80 120 -159 200 -197 52 -24 70 -27 163 -27 99 0 110
2 171 32 80 40 159 120 197 200 24 52 27 70 27 163 0 99 -2 110 -32 171 -40
81 -121 160 -200 197 -70 32 -210 41 -280 18z"/>
<path d="M1983 1093 c2 -95 -3 -128 -37 -267 -37 -153 -40 -160 -80 -201 -53
-52 -100 -65 -240 -65 l-106 0 0 -41 0 -41 139 4 139 3 5 -66 c10 -118 66
-204 169 -260 58 -31 70 -34 148 -33 72 0 93 4 136 26 75 39 107 70 142 136
51 95 52 189 6 299 -3 7 7 13 27 15 48 5 55 25 41 108 -31 182 -166 323 -344
360 -54 11 -58 13 -58 39 0 16 -3 43 -6 60 -6 28 -10 31 -44 31 l-38 0 1 -107z
m230 -146 c88 -46 159 -142 174 -234 l6 -33 -177 0 c-97 0 -176 3 -176 6 0 7
48 218 61 267 12 44 18 44 112 -6z"/>
</g>
</svg>
