<?xml version="1.0" standalone="no"?>
<!DOCTYPE svg PUBLIC "-//W3C//DTD SVG 20010904//EN"
 "http://www.w3.org/TR/2001/REC-SVG-20010904/DTD/svg10.dtd">
<svg version="1.0" xmlns="http://www.w3.org/2000/svg"
 width="258.000000pt" height="195.000000pt" viewBox="0 0 258.000000 195.000000"
 preserveAspectRatio="xMidYMid meet">

<g transform="translate(0.000000,195.000000) scale(0.100000,-0.100000)"
fill="#fff" stroke="none">
<path d="M830 1450 c92 -236 340 -743 395 -807 19 -23 45 -45 56 -48 23 -8 57
19 91 70 11 17 4 11 -17 -12 -20 -24 -42 -43 -48 -43 -6 0 1 13 16 28 38 40
141 225 238 427 45 96 86 172 91 169 4 -3 5 3 1 12 -5 13 -3 15 7 9 9 -5 11
-4 6 4 -10 15 13 73 25 65 5 -3 6 3 2 12 -4 12 -3 15 5 10 8 -5 10 -1 5 10 -5
13 -3 15 7 9 10 -6 12 -4 7 8 -3 10 -2 17 3 17 5 0 6 7 3 17 -5 12 -3 14 7 8
10 -6 12 -4 7 8 -3 10 -2 17 4 17 6 0 7 5 4 10 -3 6 -1 10 5 10 6 0 9 4 6 9
-4 5 0 11 6 14 7 2 10 8 6 12 -12 13 -72 -93 -231 -410 -85 -171 -163 -319
-172 -330 -9 -11 -13 -14 -9 -6 4 9 3 12 -4 7 -6 -4 -8 -14 -5 -23 5 -12 3
-14 -7 -8 -8 5 -11 4 -6 -3 3 -6 -5 -23 -18 -39 l-24 -28 -26 24 c-26 25 -36
48 -14 35 7 -4 8 -3 4 5 -4 6 -11 9 -16 6 -14 -9 -71 94 -233 425 -85 173
-164 324 -177 335 l-21 19 21 -54z"/>
<path d="M901 1429 c15 -24 48 -84 74 -134 150 -279 271 -477 305 -495 20 -11
33 0 86 66 8 10 6 1 -5 -20 -23 -45 -17 -70 9 -38 10 12 20 18 24 15 6 -6 10
12 7 30 0 4 4 7 10 7 5 0 8 4 5 8 -3 5 21 62 53 128 32 65 56 125 53 133 -3 9
0 11 8 6 9 -5 11 -4 6 3 -6 11 19 72 30 72 2 0 0 -9 -6 -20 -6 -11 -8 -20 -6
-20 3 0 13 14 22 31 8 17 11 28 5 25 -7 -4 -8 -1 -5 8 3 9 10 13 15 10 5 -3 6
3 2 12 -4 12 -3 15 5 10 8 -5 10 -1 5 10 -4 12 -3 15 5 10 8 -5 10 -1 5 10 -5
13 -3 15 7 9 9 -5 11 -4 6 3 -4 6 11 43 34 83 22 39 40 73 40 76 0 28 -155
-207 -223 -341 -40 -76 -109 -178 -156 -231 l-36 -40 -31 35 c-48 54 -84 112
-184 290 -96 171 -161 273 -182 286 -7 4 -1 -12 13 -37z m603 -340 c-31 -62
-115 -199 -121 -199 -3 0 1 10 9 23 9 12 39 64 68 115 29 50 54 92 56 92 3 0
-3 -14 -12 -31z"/>
<path d="M1472 1193 c-56 -82 -119 -167 -138 -190 -22 -26 -31 -43 -23 -43 30
0 67 47 169 215 40 66 80 130 88 143 8 12 13 22 10 22 -2 0 -50 -66 -106 -147z"/>
<path d="M1190 810 c6 -11 13 -20 16 -20 2 0 0 9 -6 20 -6 11 -13 20 -16 20
-2 0 0 -9 6 -20z"/>
<path d="M1446 803 c-6 -14 -5 -15 5 -6 7 7 10 15 7 18 -3 3 -9 -2 -12 -12z"/>
<path d="M1220 760 c6 -11 13 -20 16 -20 2 0 0 9 -6 20 -6 11 -13 20 -16 20
-2 0 0 -9 6 -20z"/>
<path d="M802 486 c12 -31 27 -56 34 -56 13 0 50 97 41 107 -11 10 -25 -7 -32
-39 l-7 -33 -12 35 c-7 19 -20 36 -28 38 -14 3 -13 -5 4 -52z"/>
<path d="M970 485 c0 -30 5 -55 10 -55 6 0 10 25 10 55 0 30 -4 55 -10 55 -5
0 -10 -25 -10 -55z"/>
<path d="M1080 485 c0 -30 5 -55 10 -55 6 0 10 17 10 38 l1 37 19 -24 c11 -13
20 -29 20 -37 0 -8 5 -14 10 -14 6 0 10 25 10 55 0 30 -4 55 -10 55 -5 0 -10
-10 -10 -22 l0 -21 -23 21 c-13 12 -26 22 -30 22 -4 0 -7 -25 -7 -55z"/>
<path d="M1250 485 c0 -30 5 -55 10 -55 6 0 10 11 10 25 0 16 6 25 15 25 8 0
15 5 15 10 0 6 -7 10 -15 10 -8 0 -15 5 -15 10 0 6 7 10 15 10 8 0 15 5 15 10
0 6 -11 10 -25 10 -24 0 -25 -3 -25 -55z"/>
<path d="M1396 488 c-8 -29 -13 -54 -11 -56 2 -2 14 3 27 12 28 20 38 20 38 1
0 -8 5 -15 10 -15 13 0 13 11 -1 66 -16 64 -43 60 -63 -8z m44 -9 c0 -5 -4 -9
-10 -9 -5 0 -10 7 -10 16 0 8 5 12 10 9 6 -3 10 -10 10 -16z"/>
<path d="M1563 523 c-4 -11 3 -23 21 -38 29 -23 25 -41 -5 -24 -23 12 -25 -3
-4 -21 18 -15 43 -7 52 17 4 11 -1 21 -15 31 -28 18 -28 32 -1 32 11 0 17 5
14 10 -10 16 -55 11 -62 -7z"/>
<path d="M1720 530 c0 -5 5 -10 10 -10 6 0 10 -21 10 -46 0 -57 23 -56 28 1 2
21 11 45 20 52 15 11 11 12 -25 13 -24 0 -43 -4 -43 -10z"/>
</g>
</svg>
